<?xml version="1.0" standalone="no"?>
<!DOCTYPE svg PUBLIC "-//W3C//DTD SVG 20010904//EN"
 "http://www.w3.org/TR/2001/REC-SVG-20010904/DTD/svg10.dtd">
<svg version="1.0" xmlns="http://www.w3.org/2000/svg"
 width="1007.000000pt" height="1007.000000pt" viewBox="0 0 1007.000000 1007.000000"
 preserveAspectRatio="xMidYMid meet">
<metadata>
Created by potrace 1.14, written by Peter Selinger 2001-2017
</metadata>
<g transform="translate(0.000000,1007.000000) scale(0.100000,-0.100000)"
fill="#000000" stroke="none">
<path d="M3352 9633 c-80 -16 -204 -65 -276 -108 -32 -19 -62 -35 -67 -35 -5
0 -9 -4 -9 -8 0 -4 -12 -15 -28 -24 -15 -9 -41 -28 -57 -43 -51 -46 -255 -246
-255 -250 0 -2 -17 -21 -37 -43 -74 -77 -158 -173 -243 -278 -30 -37 -63 -76
-72 -86 -10 -10 -18 -21 -18 -24 0 -3 -11 -20 -25 -38 -14 -17 -29 -35 -33
-41 -133 -177 -268 -399 -385 -630 -50 -99 -82 -165 -200 -415 -44 -94 -90
-193 -92 -200 0 -3 -10 -25 -22 -50 -11 -25 -48 -108 -83 -185 -92 -208 -109
-247 -144 -335 -15 -36 -32 -76 -38 -90 -19 -44 -27 -63 -61 -155 -19 -49 -38
-99 -42 -110 -5 -11 -9 -22 -10 -25 -1 -3 -4 -12 -8 -20 -36 -91 -175 -493
-182 -530 -2 -8 -4 -16 -5 -17 -2 -2 -3 -6 -5 -10 -1 -5 -7 -21 -13 -36 -7
-16 -12 -32 -12 -38 0 -5 -9 -35 -19 -66 -23 -69 -72 -232 -75 -247 -1 -6 -7
-27 -14 -46 -6 -19 -13 -46 -16 -60 -3 -14 -21 -81 -41 -150 -19 -69 -37 -134
-39 -145 -2 -11 -12 -49 -21 -85 -9 -36 -19 -73 -21 -82 -2 -10 -6 -26 -9 -35
-8 -30 -24 -97 -29 -123 -3 -14 -7 -34 -10 -45 -13 -56 -38 -174 -42 -200 -3
-16 -9 -43 -14 -60 -5 -16 -11 -46 -14 -65 -3 -19 -14 -78 -24 -130 -11 -52
-20 -102 -21 -110 0 -8 -7 -49 -15 -90 -8 -41 -17 -91 -20 -110 -3 -19 -8 -46
-10 -60 -3 -14 -7 -43 -10 -65 -2 -22 -10 -70 -16 -107 -5 -37 -10 -71 -9 -75
1 -4 0 -10 -1 -13 -1 -3 -3 -16 -5 -30 -1 -14 -5 -45 -8 -70 -4 -25 -9 -72
-12 -105 -3 -33 -8 -78 -11 -100 -2 -22 -6 -62 -8 -90 -12 -146 -18 -215 -22
-265 -9 -94 -11 -550 -3 -645 10 -125 22 -220 34 -285 4 -19 8 -47 9 -61 2
-14 5 -30 8 -35 3 -5 9 -25 12 -44 16 -102 90 -291 134 -342 8 -10 12 -18 8
-18 -16 0 92 -105 139 -135 87 -57 158 -76 280 -78 73 -1 106 2 174 17 105 24
376 198 521 333 19 18 38 33 42 33 4 0 8 3 8 8 0 4 37 46 83 93 45 47 98 105
117 129 19 24 40 48 45 54 26 27 167 221 230 316 39 58 73 107 78 108 4 2 7 8
7 13 0 8 54 96 82 134 4 6 24 31 43 58 19 26 35 51 35 56 0 5 4 11 8 13 5 2
52 62 106 133 53 72 102 137 109 145 7 8 21 28 31 45 11 16 28 39 39 50 19 20
19 20 13 0 -3 -11 -8 -36 -11 -55 -3 -19 -12 -56 -20 -83 -8 -26 -14 -49 -15
-52 0 -3 0 -6 -1 -7 0 -2 -3 -14 -5 -27 -2 -14 -12 -52 -21 -85 -9 -34 -17
-68 -18 -76 -1 -8 -7 -33 -13 -55 -6 -22 -13 -51 -16 -65 -3 -14 -22 -90 -41
-170 -20 -80 -38 -152 -40 -161 -7 -32 -36 -155 -45 -189 -6 -19 -17 -69 -25
-111 -8 -42 -17 -83 -19 -90 -3 -8 -7 -30 -10 -49 -3 -19 -10 -57 -16 -85 -6
-27 -12 -63 -14 -80 -4 -29 -13 -83 -21 -135 -20 -119 -27 -413 -12 -520 16
-121 42 -221 69 -274 11 -22 98 -106 107 -103 3 1 15 -4 26 -9 27 -14 111 -10
190 10 29 8 115 46 125 56 3 3 25 19 49 35 69 47 194 157 334 294 71 69 130
128 133 130 2 3 26 -20 53 -50 45 -51 110 -93 163 -105 25 -6 133 -7 158 -1
57 13 112 33 154 54 63 32 157 94 173 113 7 8 13 11 13 5 0 -6 3 -5 8 1 4 6
34 34 67 61 33 28 92 81 132 120 108 104 104 102 97 57 -14 -108 -24 -394 -13
-394 7 0 23 -59 20 -72 0 -5 3 -8 9 -8 5 0 10 -6 10 -13 0 -7 16 -36 35 -64
26 -38 48 -59 83 -74 63 -29 157 -36 215 -16 38 13 68 30 175 102 9 6 23 17
32 25 9 8 49 44 89 80 187 166 360 369 584 683 117 165 137 191 142 185 1 -1
5 -30 9 -63 9 -85 20 -118 53 -155 73 -83 159 -83 288 -1 22 14 45 30 52 36 6
5 28 21 48 35 20 14 52 39 71 57 19 17 34 29 34 26 0 -3 17 10 38 28 21 19 71
63 112 99 85 73 382 368 450 446 25 28 65 75 90 104 25 29 50 58 55 64 6 6 28
34 50 61 22 28 43 52 47 53 5 2 8 10 8 17 0 7 4 15 9 17 10 4 79 95 182 239
41 57 77 106 81 107 5 2 8 8 8 14 0 6 11 26 25 44 14 18 25 37 25 43 0 6 3 11
8 11 4 0 21 23 37 51 17 28 37 62 45 74 14 22 56 93 107 180 13 22 26 48 30
58 3 9 9 17 14 17 5 0 9 4 9 10 0 5 29 63 64 129 35 66 61 123 58 126 -3 3 -1
5 5 5 6 0 14 12 18 27 3 15 10 30 13 33 7 5 27 50 99 225 25 61 49 119 54 130
5 11 25 70 44 130 20 61 39 117 42 125 3 8 7 20 8 25 2 6 16 66 33 135 17 69
33 141 36 160 3 19 8 45 10 56 2 12 7 38 10 58 3 20 9 53 13 74 3 20 7 48 8
62 1 14 3 25 5 25 1 0 3 16 5 35 2 19 5 58 9 85 11 96 17 171 21 279 2 73 8
113 17 121 37 34 160 39 223 9 29 -14 137 -124 121 -124 -3 0 5 -16 19 -35 44
-66 66 -151 69 -279 3 -74 -4 -133 -29 -281 -6 -36 -47 -193 -61 -235 -3 -8
-6 -17 -6 -20 0 -3 -12 -34 -25 -70 -14 -36 -26 -72 -28 -80 -2 -8 -20 -58
-41 -110 -21 -52 -38 -98 -36 -102 1 -5 -2 -8 -8 -8 -5 0 -10 -9 -10 -19 0
-11 -4 -22 -9 -25 -5 -3 -11 -16 -15 -29 -3 -13 -18 -50 -33 -83 -15 -32 -28
-61 -28 -64 -3 -16 -148 -312 -210 -430 -82 -153 -311 -522 -335 -540 -4 -3
-13 -16 -20 -29 -7 -14 -17 -30 -22 -35 -5 -6 -36 -49 -68 -96 -33 -47 -65
-93 -72 -102 -168 -233 -356 -516 -401 -603 -39 -74 -47 -124 -34 -206 8 -45
36 -88 60 -90 7 0 21 -2 31 -4 39 -7 91 35 231 186 51 56 82 91 175 199 8 10
29 35 45 56 17 20 35 42 40 48 38 41 135 167 135 175 0 6 6 14 13 18 7 4 26
26 43 48 16 22 35 46 41 55 7 8 40 51 72 95 33 44 64 85 68 90 5 6 46 62 93
125 47 63 90 122 97 130 7 8 55 74 108 145 86 117 118 159 150 198 6 7 23 30
39 52 17 22 33 42 36 45 3 3 23 28 45 55 173 218 490 545 529 545 17 0 -42
-194 -91 -298 -14 -32 -28 -63 -29 -71 -1 -8 -9 -18 -16 -22 -7 -5 -10 -9 -6
-9 4 0 -16 -46 -44 -102 -29 -57 -53 -105 -53 -108 -1 -3 -31 -66 -68 -142
-57 -118 -96 -201 -102 -218 -1 -3 -5 -14 -10 -25 -41 -101 -80 -213 -91 -265
-3 -14 -7 -32 -9 -40 -2 -8 -4 -15 -5 -15 -6 0 -22 -147 -22 -205 0 -84 11
-178 26 -228 3 -9 8 -29 11 -44 12 -64 16 -82 20 -88 18 -29 24 -441 14 -948
l-3 -182 26 -27 c74 -74 218 37 243 187 4 25 9 54 11 64 5 26 15 119 20 186 2
30 6 80 8 110 28 346 26 767 -3 868 -6 18 -10 35 -10 37 -1 7 -7 37 -21 110
-23 111 -3 266 43 350 6 11 12 22 12 25 0 3 6 14 12 25 6 11 11 22 10 25 0 3
35 77 78 165 169 347 234 494 285 645 12 36 24 72 27 80 3 8 7 21 9 29 1 8 9
35 17 60 22 68 30 142 29 278 0 138 -6 173 -36 225 -43 76 -135 82 -261 19
-44 -23 -93 -53 -108 -67 -15 -13 -27 -23 -27 -20 0 6 -130 -116 -234 -220
-67 -66 -182 -191 -240 -259 -14 -16 -26 -26 -26 -22 0 4 26 76 59 160 87 226
193 561 216 687 15 77 23 115 25 115 1 0 3 14 5 30 1 17 3 30 5 30 13 0 20
327 9 400 -5 33 -11 72 -14 87 -7 44 -63 205 -88 253 -41 75 -89 131 -154 174
-33 22 -66 41 -72 41 -6 0 -19 4 -29 10 -69 38 -257 31 -336 -12 -40 -22 -71
-16 -75 14 -6 39 -15 69 -22 74 -5 3 -7 9 -4 13 2 5 -6 39 -19 77 -69 205
-119 278 -251 369 -38 27 -70 47 -70 46 0 -2 -17 4 -38 12 -94 40 -199 41
-367 6 -57 -12 -189 -62 -227 -86 -12 -8 -24 -10 -27 -5 -5 9 -11 92 -22 317
-4 93 -6 122 -19 240 -11 99 -12 110 -15 110 -2 0 -3 9 -13 77 -3 20 -17 81
-31 135 -69 270 -177 457 -322 559 -37 26 -141 74 -147 67 -3 -2 -14 0 -24 5
-11 6 -42 13 -70 15 -28 2 -56 7 -62 11 -6 4 -11 2 -11 -4 0 -7 -6 -8 -19 -1
-10 6 -21 8 -24 5 -3 -4 -27 -8 -54 -10 -26 -1 -59 -6 -73 -9 -14 -3 -38 -9
-54 -11 -16 -3 -63 -19 -105 -35 -90 -35 -98 -35 -106 -8 -10 29 -86 138 -126
179 -102 104 -182 142 -327 156 -46 4 -133 -12 -205 -38 -35 -13 -62 -17 -67
-12 -5 5 -11 28 -13 51 -2 24 -6 45 -9 49 -4 3 -5 11 -2 18 2 6 0 34 -6 61 -6
28 -13 66 -16 85 -7 48 -61 229 -91 304 -13 33 -26 70 -29 81 -2 11 -8 21 -14
23 -6 2 -8 8 -4 13 3 5 0 9 -5 9 -6 0 -10 3 -9 8 5 25 -96 189 -141 230 -85
77 -169 123 -231 126 -26 2 -52 6 -59 10 -6 4 -11 3 -11 -3 0 -7 -8 -7 -22 -2
-13 5 -33 5 -45 0 -13 -5 -25 -4 -28 2 -4 5 -11 6 -18 2 -6 -4 -25 -8 -42 -10
-65 -6 -351 -168 -421 -238 -13 -14 -31 -25 -38 -25 -8 0 -32 46 -57 108 -49
122 -105 226 -157 292 -46 58 -129 140 -142 140 -5 0 -10 4 -10 8 0 10 -123
72 -144 72 -8 0 -17 4 -20 8 -5 8 -35 11 -152 16 -28 1 -79 -4 -112 -11z m176
-440 c110 -52 208 -184 290 -387 18 -43 32 -84 32 -90 0 -6 -22 -34 -48 -63
-26 -28 -67 -75 -92 -104 -25 -28 -50 -57 -55 -63 -6 -6 -30 -36 -55 -66 -25
-30 -57 -68 -72 -85 -16 -16 -28 -35 -28 -42 0 -6 -3 -13 -8 -15 -4 -1 -25
-25 -47 -53 -22 -27 -42 -52 -45 -55 -3 -3 -28 -36 -55 -75 -27 -38 -54 -75
-60 -81 -5 -6 -17 -22 -25 -34 -8 -12 -21 -28 -27 -36 -7 -7 -13 -15 -13 -19
0 -5 -50 -75 -78 -110 -4 -5 -17 -25 -27 -42 -11 -18 -23 -33 -27 -33 -4 0 -8
-5 -8 -10 0 -6 -19 -38 -42 -71 -24 -33 -47 -68 -53 -77 -5 -10 -19 -30 -30
-47 -11 -16 -27 -42 -34 -57 -8 -16 -18 -28 -23 -28 -4 0 -8 -4 -8 -9 0 -5
-21 -43 -47 -85 -81 -130 -169 -280 -220 -376 -20 -36 -51 -94 -71 -130 -59
-109 -292 -579 -297 -600 0 -3 -9 -19 -18 -37 -9 -18 -17 -39 -17 -48 0 -8 -4
-15 -10 -15 -5 0 -10 -5 -10 -11 0 -5 -11 -34 -24 -62 -46 -99 -76 -168 -164
-375 -95 -220 -105 -244 -106 -252 -1 -3 -4 -9 -8 -15 -3 -5 -21 -48 -38 -95
-18 -47 -36 -89 -40 -95 -4 -5 -17 -39 -30 -75 -13 -36 -27 -70 -32 -76 -4 -6
-5 -14 -1 -17 3 -4 0 -7 -7 -7 -7 0 -10 -3 -7 -6 3 -4 1 -16 -5 -28 -7 -11
-13 -25 -14 -31 -2 -10 -157 -403 -173 -440 -10 -22 -22 -54 -27 -70 -4 -15
-82 -203 -104 -250 -10 -22 -23 -59 -30 -82 -7 -24 -18 -43 -23 -43 -6 0 -8
-3 -5 -6 4 -3 -1 -22 -9 -42 -8 -20 -20 -48 -26 -62 -6 -14 -11 -27 -12 -30
-5 -14 -20 -52 -46 -120 -17 -41 -31 -79 -33 -85 -2 -5 -6 -19 -10 -30 -5 -11
-12 -31 -17 -45 -5 -14 -14 -38 -20 -55 -7 -16 -13 -33 -14 -37 -2 -5 -3 -9
-5 -10 -1 -2 -3 -10 -5 -18 -2 -8 -29 -87 -60 -175 -31 -88 -58 -164 -59 -170
-1 -5 -17 -57 -36 -115 -19 -58 -35 -109 -36 -115 -10 -38 -15 -56 -29 -105
-28 -95 -72 -263 -80 -305 -5 -22 -9 -44 -11 -50 -1 -5 -5 -21 -7 -35 -3 -14
-6 -25 -7 -25 -1 0 -3 -9 -4 -20 -3 -21 -16 -96 -22 -130 -2 -11 -6 -42 -9
-70 -3 -27 -7 -57 -10 -65 -7 -26 -18 -163 -19 -237 -1 -39 -5 -69 -9 -66 -20
12 -82 184 -92 256 -4 23 -8 44 -10 47 -2 3 -7 30 -10 60 -4 30 -9 69 -11 85
-10 77 -15 205 -14 370 0 160 6 360 10 360 1 0 3 32 5 70 2 39 6 88 8 110 3
22 8 74 12 115 10 95 12 115 14 115 2 0 4 23 6 50 2 28 7 66 10 85 3 19 7 51
10 70 3 32 6 50 19 120 3 14 8 45 11 70 3 25 7 55 9 66 2 12 7 37 10 55 3 19
7 43 10 54 2 11 7 43 11 70 5 28 9 52 10 55 4 17 16 81 21 115 8 48 12 70 14
70 2 0 6 18 14 65 11 65 44 214 81 370 20 85 39 165 41 177 2 12 9 34 14 48 5
14 9 29 9 33 -1 4 0 9 1 12 1 3 3 12 5 20 1 8 10 40 19 71 9 31 19 66 21 78
10 44 15 60 69 246 73 251 204 648 250 757 9 21 17 41 17 45 2 10 6 21 20 58
7 17 13 35 15 40 3 12 178 441 206 505 10 25 25 59 33 75 47 103 65 147 65
155 0 6 5 10 10 10 6 0 9 3 8 8 -2 9 17 55 43 105 10 21 19 44 19 52 0 8 3 15
8 15 4 0 13 15 21 33 7 17 32 70 54 117 23 47 40 88 39 93 -1 4 2 7 6 7 4 0
23 34 41 75 19 41 38 75 44 75 6 0 8 3 4 6 -5 5 9 34 85 172 17 31 43 80 58
107 14 28 42 75 61 105 34 55 52 87 84 148 10 17 21 32 26 32 5 0 9 5 9 11 0
5 26 48 58 95 31 47 62 93 67 102 6 9 15 22 20 29 6 7 19 24 30 39 11 14 28
35 38 45 9 11 17 22 17 27 0 4 20 28 45 54 25 27 45 51 45 54 0 14 240 243
310 296 141 107 272 172 375 185 22 3 41 6 43 7 7 7 130 -17 160 -31z m1187
-383 c94 -26 197 -157 260 -331 29 -81 62 -194 70 -244 2 -11 4 -20 5 -20 1 0
3 -9 5 -20 2 -11 7 -36 10 -55 4 -19 9 -54 11 -78 2 -24 6 -47 9 -53 4 -5 -57
-72 -134 -149 -183 -183 -370 -396 -486 -555 -16 -22 -34 -43 -39 -47 -6 -4
-7 -8 -3 -8 5 0 -4 -17 -20 -37 -16 -21 -37 -51 -48 -68 -10 -16 -37 -55 -59
-85 -22 -30 -40 -58 -38 -62 1 -5 -3 -8 -9 -8 -6 0 -8 23 -5 68 23 274 28 407
27 672 0 140 -2 291 -5 335 -3 44 -7 125 -10 180 -5 90 -8 127 -21 205 -3 14
-7 53 -11 87 -5 59 -4 64 23 88 52 49 148 114 220 151 102 52 156 60 248 34z
m-770 -573 c22 -156 29 -310 28 -622 -1 -308 -6 -451 -16 -461 -4 -4 -2 -14 3
-24 5 -10 6 -20 3 -24 -4 -3 -8 -32 -9 -64 -1 -31 -3 -57 -4 -57 -1 0 -3 -22
-5 -50 -4 -66 -15 -173 -20 -206 -6 -35 -15 -96 -20 -144 -3 -22 -7 -51 -10
-65 -2 -14 -7 -41 -10 -60 -5 -30 -12 -60 -29 -130 -15 -61 -175 -445 -282
-677 -7 -17 -14 -37 -14 -45 0 -8 -4 -18 -8 -24 -5 -5 -37 -83 -71 -174 -35
-91 -67 -174 -72 -185 -4 -11 -23 -63 -40 -115 -18 -52 -35 -97 -38 -100 -3
-3 -6 -9 -6 -15 0 -5 -16 -55 -35 -110 -19 -55 -35 -104 -37 -110 -1 -5 -11
-37 -23 -70 -11 -32 -22 -68 -25 -80 -2 -11 -15 -53 -29 -93 -15 -41 -26 -80
-26 -88 0 -8 -4 -22 -9 -32 -5 -9 -21 -57 -36 -107 -39 -134 -95 -282 -119
-318 -12 -18 -31 -33 -41 -33 -11 -1 -27 -2 -36 -3 -25 -2 -87 -70 -100 -110
-6 -20 -15 -40 -20 -46 -5 -5 -9 -17 -9 -27 0 -10 -4 -18 -10 -18 -5 0 -9 -3
-8 -7 4 -17 -33 -108 -88 -215 -13 -27 -21 -48 -18 -48 4 0 0 -8 -8 -17 -9
-10 -19 -28 -22 -40 -4 -13 -12 -23 -17 -23 -5 0 -9 -9 -9 -20 0 -11 -3 -20
-8 -20 -4 0 -16 -17 -27 -37 -11 -20 -31 -51 -45 -68 -14 -18 -34 -44 -45 -59
-43 -59 -100 -131 -107 -134 -5 -2 -8 -10 -8 -17 0 -7 -3 -15 -7 -17 -5 -1
-39 -41 -78 -88 -38 -47 -76 -92 -85 -101 -8 -9 -42 -47 -75 -85 -187 -213
-580 -604 -607 -604 -6 0 -9 -3 -5 -6 8 -8 -204 -183 -256 -212 -58 -31 -87
-25 -112 24 -17 33 -20 58 -19 169 0 72 6 162 13 200 6 39 14 81 16 95 12 76
16 97 21 112 3 9 7 26 9 37 3 12 7 31 11 44 9 39 15 71 17 90 1 9 5 17 10 17
5 0 7 7 3 15 -3 8 -2 15 2 15 4 0 8 10 9 23 3 33 31 133 70 247 8 25 16 52 18
60 5 18 54 167 65 195 4 11 20 56 34 100 15 44 31 89 36 100 29 69 73 190 73
201 0 8 4 14 9 14 4 0 8 6 8 13 0 10 129 347 165 432 5 11 10 25 10 30 1 6 7
21 12 35 6 14 36 90 68 170 31 80 61 154 65 165 22 51 67 161 68 165 1 9 14
45 22 65 27 65 41 98 69 170 17 44 36 94 42 110 7 17 13 32 14 35 1 3 8 21 16
40 7 19 12 38 11 43 -1 4 3 7 10 7 6 0 9 3 5 6 -3 4 1 21 10 38 10 17 16 37
15 44 -2 6 1 12 6 12 5 0 9 6 9 13 0 6 12 37 26 67 14 30 29 68 32 83 4 15 10
27 14 27 4 0 8 6 8 13 0 12 117 289 131 311 4 6 7 13 7 16 0 8 102 233 171
378 35 73 64 136 65 140 5 20 75 148 84 154 5 4 6 8 2 8 -7 0 7 29 89 175 15
28 37 70 50 95 20 41 111 205 134 240 5 8 26 44 46 80 21 36 40 67 44 70 3 3
9 12 13 20 8 19 7 17 143 225 61 93 118 178 127 187 9 9 17 19 17 23 0 9 82
119 92 123 4 2 8 9 8 15 0 7 12 26 28 42 15 17 60 73 100 126 40 53 82 105 92
114 11 10 20 24 20 32 0 7 3 13 8 13 4 0 27 26 52 58 86 111 157 185 169 177
5 -3 12 -29 16 -58z m1705 -463 c43 -13 124 -79 118 -94 -2 -4 -40 -37 -86
-74 -45 -36 -99 -81 -118 -98 -77 -71 -109 -98 -114 -98 -3 0 -6 33 -8 73 -1
39 -4 118 -6 174 -2 56 0 106 4 112 3 7 21 13 39 16 18 2 35 6 37 8 8 7 89 -4
134 -19z m-529 -236 c0 -7 3 -24 5 -38 3 -14 6 -121 7 -238 l3 -212 -33 -51
c-17 -28 -39 -61 -47 -72 -9 -12 -44 -65 -77 -117 -34 -52 -70 -107 -80 -122
-11 -15 -19 -32 -19 -38 0 -5 -4 -10 -9 -10 -5 0 -13 -10 -17 -22 -3 -12 -26
-52 -50 -90 -24 -38 -44 -70 -44 -73 0 -2 -13 -27 -29 -54 -17 -28 -60 -108
-97 -178 -37 -70 -77 -147 -90 -170 -13 -24 -20 -43 -16 -43 4 0 2 -4 -3 -8
-11 -7 -23 -31 -105 -207 -88 -186 -120 -257 -125 -275 0 -3 -13 -31 -28 -63
-15 -32 -27 -60 -27 -63 0 -3 -11 -29 -24 -57 -13 -29 -42 -97 -63 -152 -22
-55 -44 -109 -48 -120 -4 -11 -9 -24 -11 -30 -2 -5 -32 -86 -68 -180 -36 -93
-68 -179 -72 -190 -9 -29 -7 -22 -84 -250 -40 -115 -73 -214 -74 -220 -1 -5
-11 -37 -21 -70 -10 -33 -19 -64 -21 -70 -1 -5 -7 -30 -14 -55 -7 -25 -12 -47
-12 -50 0 -3 -4 -12 -9 -21 -11 -21 -117 -409 -123 -454 -2 -11 -4 -20 -6 -20
-1 0 -3 -9 -5 -20 -2 -11 -6 -31 -9 -45 -3 -14 -9 -36 -12 -50 -8 -39 -12 -55
-14 -55 -1 0 -3 -9 -5 -20 -1 -11 -5 -31 -8 -45 -7 -28 -56 -272 -63 -310 -3
-14 -11 -61 -20 -105 -8 -44 -17 -96 -19 -115 -3 -19 -7 -46 -10 -60 -3 -14
-8 -45 -11 -70 -3 -25 -7 -56 -9 -70 -11 -70 -19 -128 -21 -155 -1 -16 -3 -30
-4 -30 0 0 -3 -16 -5 -35 -10 -103 -17 -170 -21 -210 -3 -25 -6 -158 -7 -297
l-3 -252 -105 -112 c-88 -95 -140 -144 -280 -263 -32 -26 -140 -86 -157 -86
-36 0 -61 35 -77 105 -10 41 -10 55 -2 55 8 0 8 3 2 8 -22 16 1 337 35 497 5
22 12 60 15 85 4 24 9 48 12 53 3 4 6 18 8 30 3 24 12 71 20 102 2 11 16 72
30 135 14 63 44 189 66 280 22 91 43 174 45 185 3 11 6 25 8 30 2 6 7 28 11
50 12 55 12 54 15 60 1 3 3 8 5 13 8 28 18 70 40 162 27 110 27 112 44 175 26
106 43 171 46 185 2 8 15 62 30 120 15 57 29 111 30 120 2 8 4 15 5 15 2 0 5
14 14 52 3 13 17 67 32 120 14 54 27 103 28 108 1 6 5 15 8 21 4 6 9 23 12 38
13 72 76 237 151 396 46 96 93 198 105 225 12 28 28 64 35 80 8 17 26 59 41
95 14 36 31 76 37 90 6 14 11 27 12 30 1 3 9 23 18 44 10 22 25 62 35 90 9 28
19 53 22 56 3 3 18 43 34 90 16 47 33 96 39 110 6 14 11 30 13 35 2 6 17 51
34 100 17 50 33 98 35 107 2 9 9 26 15 37 6 12 8 21 5 21 -3 0 1 13 9 29 9 16
13 31 10 34 -3 3 0 16 7 28 7 13 16 39 21 59 15 60 16 65 18 65 1 0 3 7 5 15
19 80 91 341 100 365 65 163 132 293 264 514 47 80 93 157 102 172 51 88 215
316 339 469 24 30 48 60 52 65 82 102 250 275 267 275 6 0 11 -6 12 -12z
m1367 -32 c116 -6 191 -44 265 -135 19 -23 78 -134 78 -148 1 -5 5 -16 11 -26
5 -10 11 -26 13 -35 3 -9 9 -35 15 -57 27 -99 55 -257 75 -430 8 -67 17 -244
18 -346 1 -107 5 -98 -89 -174 -66 -54 -116 -99 -182 -162 -35 -35 -65 -63
-67 -63 -6 0 -269 -270 -278 -285 -4 -8 -15 -15 -23 -15 -8 0 -13 4 -10 8 3 5
7 35 11 68 3 33 7 71 10 84 9 46 24 210 30 335 6 111 6 533 0 635 -8 147 -14
226 -19 270 -3 25 -8 68 -11 95 -3 28 -8 66 -10 85 -3 19 -8 51 -11 70 -2 19
-8 60 -13 90 -5 30 -8 71 -7 90 1 33 4 36 46 46 25 6 50 10 55 8 6 -2 47 -5
93 -8z m-524 -246 c10 -36 19 -81 22 -100 2 -19 7 -44 11 -55 3 -11 7 -29 8
-41 2 -11 8 -45 14 -75 19 -99 26 -163 36 -324 6 -100 6 -663 -1 -770 -4 -85
-14 -159 -40 -320 -2 -16 -7 -43 -11 -60 -3 -16 -7 -40 -9 -52 -1 -12 -5 -34
-8 -50 -12 -54 -17 -78 -20 -103 -3 -14 -12 -58 -21 -99 -9 -40 -19 -80 -20
-90 -2 -9 -4 -17 -5 -18 -2 -2 -3 -6 -4 -10 -11 -51 -44 -138 -90 -236 -20
-43 -36 -80 -36 -83 0 -2 -36 -77 -80 -166 -44 -89 -80 -168 -80 -175 0 -7 -4
-13 -9 -13 -5 0 -13 -10 -17 -22 -11 -36 -68 -153 -76 -156 -5 -2 -8 -9 -8
-15 0 -7 -9 -29 -20 -50 -11 -20 -20 -44 -20 -52 0 -8 -4 -15 -10 -15 -5 0
-10 -4 -10 -9 0 -6 -22 -58 -50 -116 -27 -58 -49 -106 -49 -108 0 -4 -110
-240 -125 -267 -8 -14 -15 -29 -16 -35 -1 -5 -10 -30 -22 -55 -11 -25 -60
-139 -109 -255 -49 -115 -94 -219 -98 -230 -5 -11 -23 -56 -41 -100 -17 -44
-40 -98 -50 -120 -10 -22 -23 -59 -30 -82 -7 -24 -17 -43 -22 -43 -5 0 -7 -4
-3 -10 3 -5 1 -17 -5 -27 -5 -10 -39 -99 -75 -198 -97 -265 -140 -367 -169
-398 -6 -7 -29 -35 -51 -62 -97 -121 -362 -388 -445 -447 -82 -58 -175 -108
-209 -113 -14 -2 -34 -6 -43 -10 -20 -8 -78 18 -107 49 l-21 22 84 131 c130
202 270 439 378 638 37 70 211 416 213 425 1 3 16 37 34 75 42 88 187 433 211
500 10 28 24 64 30 80 7 17 14 37 16 45 2 8 7 23 13 35 5 11 14 34 19 50 6 17
28 80 50 142 22 61 38 114 35 117 -4 3 -1 6 5 6 7 0 12 6 12 13 0 7 12 48 26
92 15 44 27 85 28 90 2 11 44 141 53 165 3 8 7 20 8 25 2 6 15 53 31 105 15
52 28 102 29 110 0 9 4 20 7 25 5 9 19 55 34 115 2 8 11 42 20 75 8 33 17 69
19 80 3 11 9 38 15 60 6 22 13 48 15 58 2 10 7 27 10 37 3 10 8 29 10 42 3 13
8 37 12 53 4 17 7 32 8 35 10 46 15 69 19 90 3 14 10 45 16 70 6 25 13 59 15
76 3 17 9 42 13 55 5 13 8 32 7 42 -2 9 1 17 6 17 6 0 8 4 5 8 -3 5 1 38 9 74
17 81 24 121 31 178 4 25 10 50 15 56 5 6 7 13 4 16 -3 3 4 63 16 134 11 71
23 143 25 159 2 17 8 62 14 100 5 39 12 93 15 120 3 28 7 61 9 75 3 14 8 54
11 90 3 36 8 83 11 105 3 22 7 69 9 105 2 36 4 65 5 65 1 0 3 20 5 45 7 82 15
175 19 200 15 108 19 118 59 162 48 50 185 172 267 238 30 24 60 49 65 54 10
12 49 39 94 67 14 9 29 14 32 10 4 -3 14 -35 23 -71z m-871 -882 c-1 -18 -5
-62 -8 -98 -2 -36 -7 -74 -9 -85 -2 -11 -7 -47 -10 -80 -4 -33 -9 -74 -12 -91
-3 -17 -7 -47 -9 -67 -3 -21 -7 -53 -10 -74 -2 -20 -7 -52 -11 -72 -3 -20 -7
-47 -9 -61 -2 -21 -15 -93 -40 -240 -3 -14 -9 -50 -15 -80 -6 -30 -13 -68 -16
-85 -3 -16 -9 -49 -15 -73 -5 -23 -12 -59 -15 -80 -3 -20 -10 -55 -16 -76 -5
-22 -11 -49 -12 -61 -1 -11 -6 -27 -10 -34 -4 -7 -5 -15 -2 -18 3 -3 1 -14 -5
-24 -5 -10 -11 -31 -13 -46 -2 -15 -11 -59 -20 -98 -9 -38 -19 -80 -21 -91 -6
-27 -87 -338 -99 -379 -22 -79 -29 -102 -32 -115 -12 -55 -39 -136 -46 -138
-4 -2 -6 -7 -3 -11 6 -11 -134 -433 -149 -448 -3 -4 -6 -12 -6 -20 0 -12 -114
-308 -148 -383 -8 -19 -15 -41 -15 -47 0 -7 -4 -13 -8 -13 -7 0 -17 -26 -25
-64 -3 -11 -10 -26 -16 -34 -7 -8 -13 -19 -14 -26 -3 -20 -160 -355 -234 -497
-108 -208 -142 -272 -201 -369 -32 -55 -59 -103 -59 -109 0 -5 -4 -11 -8 -13
-4 -1 -25 -30 -45 -63 -20 -33 -37 -53 -38 -45 -3 48 10 230 26 375 11 105 17
152 20 165 4 13 13 77 20 135 1 11 3 20 5 20 1 0 3 9 4 20 2 17 16 99 21 130
1 6 3 12 4 15 2 3 4 19 6 35 2 28 5 44 20 115 10 46 17 85 21 105 5 34 14 76
35 170 12 50 23 101 25 115 3 14 10 43 16 65 5 22 12 51 14 65 3 14 7 32 10
40 3 8 8 25 10 38 2 12 16 64 30 115 25 92 30 112 38 145 3 9 16 55 30 102 15
47 28 94 31 105 3 11 18 61 35 110 17 50 33 101 36 115 3 13 10 30 16 37 6 7
8 13 5 13 -3 0 13 51 34 113 22 61 47 132 56 157 8 25 20 56 26 70 5 14 11 30
13 35 1 6 8 24 15 40 6 17 13 35 15 40 7 30 176 448 215 532 10 24 19 45 19
48 0 3 17 42 38 88 22 45 52 111 68 147 47 104 229 463 275 542 24 40 42 75
42 78 0 3 8 17 18 32 10 14 19 31 19 37 0 6 4 11 9 11 5 0 11 8 15 18 6 20 25
50 44 70 6 7 12 18 12 23 0 5 4 9 8 9 5 0 7 -15 5 -32z m2662 -317 c86 -38
167 -147 215 -290 12 -36 19 -75 15 -88 -3 -13 -31 -51 -63 -84 -31 -34 -75
-80 -97 -104 -49 -52 -83 -91 -155 -175 -30 -36 -57 -67 -60 -70 -3 -3 -34
-41 -68 -85 -89 -113 -95 -121 -112 -145 -8 -12 -46 -63 -83 -114 -38 -50 -78
-107 -90 -126 -12 -19 -25 -39 -30 -45 -4 -5 -53 -75 -108 -155 -106 -152
-108 -152 -69 -5 6 22 13 47 15 55 2 8 4 15 5 15 1 0 3 9 5 20 7 35 35 149 42
165 3 8 5 18 5 22 -1 4 5 36 13 70 8 35 16 74 19 88 2 14 11 63 20 110 8 47
18 99 20 115 3 17 8 50 12 75 4 25 8 56 9 70 1 14 3 25 5 25 1 0 4 16 5 35 2
19 6 60 10 90 6 62 6 61 31 305 14 143 16 147 142 196 57 22 123 44 146 49 59
12 151 3 201 -19z m-810 -381 c-2 -8 -6 -44 -10 -80 -3 -36 -8 -76 -10 -90 -2
-14 -7 -50 -10 -80 -3 -30 -8 -66 -10 -80 -2 -14 -7 -47 -10 -75 -3 -27 -7
-57 -10 -65 -2 -8 -7 -33 -10 -55 -3 -23 -8 -52 -10 -65 -3 -14 -8 -38 -11
-55 -4 -16 -8 -40 -9 -52 -2 -11 -6 -30 -9 -41 -7 -20 -10 -35 -21 -84 -17
-81 -28 -126 -35 -148 -5 -14 -27 -95 -50 -180 -22 -85 -44 -162 -47 -170 -9
-21 -9 -21 -17 -62 -5 -21 -11 -38 -15 -38 -4 0 -8 -8 -8 -17 -3 -23 -59 -194
-113 -343 -23 -63 -43 -119 -44 -125 -2 -5 -7 -19 -11 -30 -5 -11 -17 -42 -27
-70 -10 -27 -22 -59 -27 -70 -52 -121 -104 -252 -104 -262 0 -7 -4 -13 -9 -13
-4 0 -8 -5 -8 -11 0 -11 -7 -29 -50 -124 -13 -27 -34 -75 -47 -105 -77 -173
-257 -520 -324 -625 -10 -16 -24 -41 -29 -55 -6 -13 -15 -27 -18 -30 -4 -3
-30 -41 -57 -85 -27 -44 -68 -108 -92 -143 -24 -35 -43 -67 -43 -72 0 -4 -4
-10 -8 -12 -4 -1 -28 -32 -52 -68 -25 -36 -47 -67 -50 -70 -3 -3 -21 -27 -40
-55 -19 -27 -39 -55 -45 -61 -5 -7 -19 -24 -30 -40 -139 -193 -379 -451 -486
-523 -31 -20 -68 -36 -94 -38 -40 -5 -43 -4 -50 23 -11 44 -4 232 10 254 2 3
6 26 10 50 3 25 11 63 17 85 5 22 12 49 15 60 8 37 11 50 13 53 3 2 3 4 15 47
43 164 66 214 228 484 59 99 107 183 107 188 0 5 9 19 20 31 12 12 18 22 14
22 -3 0 5 19 19 42 24 42 170 328 172 338 1 3 17 39 37 80 71 149 138 299 140
310 0 3 8 21 18 40 9 19 40 91 67 160 28 69 54 134 58 145 5 11 9 22 10 25 11
41 42 110 48 110 4 0 6 4 2 10 -3 5 -1 17 5 27 8 16 67 170 74 198 2 6 8 23
15 39 6 16 13 36 15 45 3 16 6 24 22 66 4 11 8 23 9 28 2 4 3 8 5 10 1 1 3 10
5 20 2 10 7 26 11 35 4 9 8 22 9 27 4 17 66 219 72 235 3 8 7 20 8 25 6 25 44
143 56 170 7 17 13 32 14 35 1 3 6 16 12 30 6 14 12 30 13 35 2 6 14 27 26 47
13 21 24 40 24 43 0 10 83 140 94 147 6 4 8 8 3 8 -7 0 88 132 123 171 8 9 33
39 55 65 51 62 309 322 395 398 55 49 65 54 71 39 4 -10 5 -25 4 -33z m1090
-518 c-4 -86 -10 -155 -20 -222 -3 -19 -7 -48 -10 -65 -7 -52 -16 -109 -20
-125 -5 -17 -16 -75 -20 -105 -2 -11 -4 -21 -5 -22 -2 -2 -4 -7 -5 -13 -1 -5
-4 -12 -5 -15 -1 -3 -3 -13 -5 -22 -1 -10 -4 -25 -7 -33 -3 -8 -20 -62 -37
-120 -18 -58 -36 -114 -41 -125 -5 -11 -20 -50 -34 -87 -14 -37 -30 -77 -37
-90 -7 -13 -14 -28 -15 -33 -2 -12 -141 -293 -172 -347 -12 -21 -38 -68 -58
-105 -21 -37 -54 -93 -73 -123 -20 -30 -36 -57 -36 -60 -2 -10 -41 -72 -57
-92 -10 -12 -18 -27 -18 -34 0 -7 -3 -14 -8 -16 -4 -1 -27 -32 -51 -68 -59
-86 -108 -157 -140 -200 -29 -39 -36 -48 -83 -107 -18 -22 -43 -54 -55 -70
-12 -15 -30 -37 -40 -48 -10 -12 -47 -54 -83 -95 -79 -92 -330 -343 -424 -425
-38 -33 -74 -65 -80 -70 -54 -51 -181 -145 -184 -137 -5 16 43 179 81 277 17
44 32 85 33 90 11 56 386 845 406 853 4 2 8 8 8 12 0 19 309 572 322 578 5 2
8 8 8 13 0 10 179 310 190 319 4 3 9 12 13 20 8 17 19 35 65 102 17 26 32 50
32 52 0 3 19 33 43 68 24 35 68 99 97 143 30 44 58 85 63 90 4 6 31 42 60 81
72 98 205 265 272 341 71 82 120 131 127 127 4 -3 6 -44 3 -92z"/>
</g>
</svg>
