
        <svg xmlns="http://www.w3.org/2000/svg" xmlns:xlink="http://www.w3.org/1999/xlink" version="1.1" width="3162.28563870063"
        height="652.3356570782223" viewBox="0 -8.114281935031485 3162.28563870063 652.3356570782223">

			<g transform="scale(8.114281935031485) translate(10, 10)">
				<defs id="SvgjsDefs2082"></defs><g id="SvgjsG2083" featureKey="symbolFeature-0" transform="matrix(19.02728794842139,0,0,19.02728794842139,-14.630922784432364,-15.742723813983021)" fill="#ffffff"><title xmlns="http://www.w3.org/2000/svg">icon</title><path xmlns="http://www.w3.org/2000/svg" d="M3.91487,3.6416c.00531-.07092.01368-.15016.01677-.22384a.63838.63838,0,0,0-.01174-.19.50567.50567,0,0,1-.016-.06919l-.00014-.001,0-.00351.00065-.0108.00283-.01539c.00065-.00314.00662-.02522.00522-.021.00419-.01333.00919-.02643.01427-.03944l.00945-.02245.002-.00468.00208-.00426c.0156-.033.03263-.06493.04926-.09711a1.09955,1.09955,0,0,0,.08843-.218.30551.30551,0,0,0,.00861-.17035c-.02975-.08359-.12462-.0148-.1826.03925a1.66626,1.66626,0,0,0-.13905.14874,1.72361,1.72361,0,0,0,.10694-.32056.55411.55411,0,0,0,.01291-.15027.35966.35966,0,0,0-.031-.121.157.157,0,0,0-.234-.085.60214.60214,0,0,0-.02152-.079A.19872.19872,0,0,0,3.425,1.83054a.31445.31445,0,0,0-.16356.04693c-.0014-.20958-.02942-.43408-.15554-.50905a.27094.27094,0,0,0-.24024.012c-.04238-.08645-.10565-.142-.19811-.12263a.28679.28679,0,0,0-.05847.01946l-.00082-.00695A.67709.67709,0,0,0,2.52257.98715.16459.16459,0,0,0,2.313.91538a.46832.46832,0,0,0-.13817.08894A.4848.4848,0,0,0,2.11347.87139.20083.20083,0,0,0,1.95821.77482a.34709.34709,0,0,0-.21393.09054,1.70776,1.70776,0,0,0-.4221.60527c-.05736.11991-.11337.2436-.16156.3685a4.56813,4.56813,0,0,0-.15307.477,3.92479,3.92479,0,0,0-.13048.784,1.36823,1.36823,0,0,0,.013.29948.53779.53779,0,0,0,.03567.12167.13047.13047,0,0,0,.016.02863c-.00641-.00833.001.00211.00183.00337l.01111.01609a.17974.17974,0,0,0,.03256.03476.19572.19572,0,0,0,.21023.00964.68949.68949,0,0,0,.21819-.18108,1.49715,1.49715,0,0,0,.15773-.22679q.0694-.08554.13419-.17968c-.02062.0813-.0408.16261-.06134.244-.02334.09239-.04525.185-.05948.27684a.62376.62376,0,0,0,.0037.28171.09727.09727,0,0,0,.06668.06736.17749.17749,0,0,0,.12522-.044.86776.86776,0,0,0,.15275-.14675.11782.11782,0,0,0,.063.05852c.06444.02311.14746-.02638.2179-.08687.02344-.02007.04631-.04173.06865-.0647a.56955.56955,0,0,0-.00842.09505.16411.16411,0,0,0,.04082.12518.11143.11143,0,0,0,.12956-.00636.89051.89051,0,0,0,.20713-.21c.03679-.04771.07253-.09758.10729-.14894a.13693.13693,0,0,0,.01193.07658.06143.06143,0,0,0,.08911.01754.53906.53906,0,0,0,.09763-.07082c.04276-.03621.0853-.07382.12687-.11494a2.0409,2.0409,0,0,0,.26669-.3297,1.93077,1.93077,0,0,0,.196-.37164,1.40017,1.40017,0,0,0,.08193-.36778.96078.96078,0,0,0,.00355-.11035l.00908-.00385.00669-.00248L3.66114,2.187a.1235.1235,0,0,1,.029-.00222h.001L3.6926,2.185,3.705,2.1883l.012.00478.00486.00257a.1291.1291,0,0,1,.02133.01935l.00908.01113.0061.01a.26614.26614,0,0,1,.01717.03535l.00784.02139c-.00454-.0127-.00007.001.00056.00339l.00346.0183.00119.009c-.00054-.00474.0004.00688.00047.00918.0003.01027,0,.021-.00054.03173L3.78723,2.381l0,.00023-.00058.00452c-.00183.01366-.00426.02745-.007.0412l-.00809.0366-.00473.01864-.00339.01226c-.00755.026-.01607.05167-.02531.07719-.02224.06128-.048.1213-.075.18031l-.00519.0113-.01053.02238-.02044.0425c-.01516.03134-.03078.062-.04781.09187a2.16031,2.16031,0,0,1-.13709.20681c-.0526.07279-.10537.14581-.154.22421a.11289.11289,0,0,0-.01127.096c.01508.03162.04643.02325.07412-.00571a3.51369,3.51369,0,0,0,.27123-.33443c.08219-.11059.16352-.22468.252-.32268L3.897,2.75957l.01148-.01212.00491-.005c.015-.0149.03024-.02907.04568-.04206l.02079-.01616.00234-.00164c-.0025.01354-.00582.02718-.00933.04077l-.00105.00423-.002.00636-.00772.02283c-.00547.01537-.0119.03045-.01845.04538l-.00126.0029-.00309.00641-.01111.02241-.02692.05225a1.16614,1.16614,0,0,0-.08965.2.46133.46133,0,0,0-.02229.12107.33388.33388,0,0,0,.01254.09047L3.8106,3.33l.00351.01417.00215.00608.00019.00295c.00255.03518.00388.071.004.10755.00014.07456-.00342.15194-.00917.22894-.003.04.024.06.05047.04771A.11668.11668,0,0,0,3.91487,3.6416Zm-.5843-1.63119.00059-.00019.00182-.0005.01729-.00359.02507-.00269c.00412-.00026.00809-.00019.01211-.00014l.00728.00047a.12505.12505,0,0,1,.03487.01188l.00617.004.00915.00783a.14342.14342,0,0,1,.017.01918l.00038.00047.00126.002.00732.01221A.30742.30742,0,0,1,3.486,2.0922l.00851.02227.00311.01034.004.01589.001.00437a1.52874,1.52874,0,0,0-.17821.19991c-.056.07267-.10937.15-.16043.23034a2.33318,2.33318,0,0,0,.07534-.34627c.00814-.06281.014-.12516.01768-.18658a.49808.49808,0,0,1,.04645-.0222Zm-.3581-.49809c.00477-.00017.0095,0,.01417.00024l.008.00083a.17508.17508,0,0,1,.02681.00689l.01965.00869.00767.00489.00889.0074.015.01593.00384.00491c-.00384-.00514.004.00609.00552.00867a.31343.31343,0,0,1,.02271.04777l.00489.01345.00239.0074.008.03027a.99409.99409,0,0,1,.02215.1436L3.143,1.8228l.001.01532.00185.0386c.001.02465.00131.0497.00131.0749a1.48693,1.48693,0,0,0-.20391.19148l-.0182.02049a1.70449,1.70449,0,0,0,.02061-.19338A1.98524,1.98524,0,0,0,2.933,1.637a1.15281,1.15281,0,0,0-.02014-.11664A.27519.27519,0,0,1,2.97247,1.51232ZM2.62235,1.4242l.01148-.00411.00227-.00051L2.65945,1.416,2.677,1.4159l.02012.00553.01574.00751.01417.01175.01172.01215a.91886.91886,0,0,0-.11386.09667c-.00012-.04218-.00119-.08395-.0033-.125ZM2.26252,2.9261c-.01245.03176-.02544.06334-.03875.09477l-.0206.04762-.01061.02381-.00719.01576-.00178.00379c-.03072.06587-.06366.13037-.09857.19292-.01664.0298-.03394.05894-.05162.08757l-.01953.031c.0005-.01988.00159-.04.00285-.06l.00293-.03569.00168-.0182.00091-.00865c.0029-.02531.00627-.0508.01-.07634.0147-.10189.03511-.20508.059-.3079q.01456-.06273.03136-.12532l.0043-.01565.00676-.02309q.01377-.04666.02879-.093c.04124-.12855.08875-.25585.14153-.38021q.01958-.04624.04039-.09172l.00244-.00538.0017-.00373.01061-.02257.02529-.052c.02987-.06044.06175-.11952.09533-.1767l.02477-.041-.00161.01852c-.00571.06323-.014.129-.02468.20052s-.02357.14335-.03819.21544a3.69216,3.69216,0,0,1-.10676.40943C2.31189,2.7962,2.28794,2.86141,2.26252,2.9261ZM2.23974,1.108l.02042-.01447.00847-.00522.01678-.00921L2.31005,1.068l.00574-.00213.00789-.00228.02282-.003.01021,0,.00615.00133a.11652.11652,0,0,1,.02283.00827l.00693.00381.00589.00439a.15841.15841,0,0,1,.01869.01752l.00861.0102.00433.00565.001.00153a.33512.33512,0,0,1,.02776.05415l.01157.031.00094.00276.00117.00372.00629.02271a.99738.99738,0,0,1,.02283.11819,1.50506,1.50506,0,0,0-.27511.32639l-.01536.02365a2.50028,2.50028,0,0,0,.01251-.33053,1.8361,1.8361,0,0,0-.01937-.22892C2.21613,1.1264,2.22787,1.117,2.23974,1.108Zm-.3739,1.35708c-.02483.07578-.0478.15178-.06949.22786L1.77,2.74c-.01239-.013-.03712-.00632-.05052.02847-.02.052-.04168.104-.065.1551l-.027.03817c-.03956.055-.08074.10717-.12294.15709-.02044.02423-.0412.04762-.06213.07054l-.03176.03406L1.3946,3.24l-.008.00809-.00539.00547c-.04187.04182-.08464.0814-.12726.12036a.68143.68143,0,0,1-.05915.04879l-.00829.00543-.01034.00557-.01333.00585-.00636.00093-.00368-.00009L1.14537,3.437c.0093.00458.00675.00285.00357.00038l-.00428-.00664L1.14318,3.427l-.00241-.00739c.004.01244.00081.00215-.00028-.00215l-.00464-.02563-.00044-.00421-.00019-.0044c-.00037-.00861-.00028-.01745-.00011-.02634l.00146-.02816.00037-.00463.00148-.01347a1.24851,1.24851,0,0,1,.02752-.13917l.00927-.03569.00289-.01048.00249-.00889c.00772-.0268.016-.05347.02447-.08.05991-.18679.13807-.36568.20789-.54872.05456-.14308.1114-.28541.1734-.425a3.98934,3.98934,0,0,1,.20139-.394,2.76667,2.76667,0,0,1,.199-.29043c.03261-.04259.066-.08374.10018-.123l.01806-.0204c.00421.02884.00746.05837.01.08832l.0008.01021.00112.017.00175.03428c.00108.02493.00161.05021.00181.07557.00037.04828-.0009.09743-.00353.147-.00118.02314-.00282.04644-.00464.06978l-.003.03443-.00166.017-.00095.00914c-.00489.04395-.01124.08836-.019.13292q-.0061.03515-.01352.07057A4.074,4.074,0,0,0,1.86585,2.46509Zm-.86767.93718L.9946,3.39184C.99666,3.398.99284,3.38567.99254,3.38445l-.007-.02839c-.00477-.02138-.00821-.04388-.011-.0669L.97157,3.26048.97071,3.24921.96976,3.23195C.96844,3.20664.96811,3.18082.96819,3.15486c.00023-.05052.003-.10231.0072-.15447l.00333-.03724.00181-.01857.00113-.01071q.00417-.037.00932-.07419c.0083-.06109.01833-.1227.02917-.18422a4.31253,4.31253,0,0,1,.10763-.4618,3.91816,3.91816,0,0,1,.158-.44342c.05313-.12371.09652-.22014.15772-.33876.03-.05812.06171-.11495.09516-.16973l.024-.03824.01221-.01864.0082-.01207c.01679-.02439.0343-.04784.05218-.07044.01682-.02131.03435-.0414.05217-.06053l.00875-.00916.01016-.00976.033-.02975A.67876.67876,0,0,1,1.79468.97L1.80343.96406,1.812.959,1.8408.94364,1.86443.93371,1.87581.92977l.00009,0,.0016-.00039A.18167.18167,0,0,1,1.92266.924l.00851.00037.00131.00022L1.95067.929l.01724.00673.00824.0042L1.97821.941l.00061.00037a.18131.18131,0,0,1,.02939.02554l.01336.01571.00372.00483c-.00353-.00474.00373.00565.00516.00782a.44128.44128,0,0,1,.04238.09293l.002.00615.00161.00557a2.48413,2.48413,0,0,0-.19423.2373,3.20112,3.20112,0,0,0-.22989.357c-.07529.13691-.14238.28147-.20506.42718-.0303.07046-.05931.14155-.08768.213-.02514.06333-.04838.12785-.07439.19077-.033.07962-.06575.15933-.0968.23977-.03865.10008-.07457.20155-.10485.304a1.5638,1.5638,0,0,0-.06527.31464.51758.51758,0,0,0-.00125.06236A.3511.3511,0,0,1,.99818,3.40227Zm.842.23988-.001.00108-.0018.00173-.0125.01221-.02985.02709-.02571.02086-.01272.00926-.00588.00388-.0203.01048-.004.00159-.01048.00243L1.71152,3.733l-.0034-.00117H1.708l-.00523-.00515-.004-.00426L1.692,3.70648l-.00271-.01357L1.687,3.67345c-.00067-.01726-.00017-.03527.00077-.05328l.00249-.0319L1.69036,3.587l.002-.01619c.00321-.02489.0074-.05.01194-.07518.016-.08869.03823-.17785.06067-.26669.03151-.1249.06107-.2498.09428-.37461q.01368-.05158.0281-.103l.00508-.018.00773-.027.00087-.00306a3.04733,3.04733,0,0,0,.25821-.701c.03128-.06383.06516-.1253.10061-.18533.012-.02015.02424-.03981.03676-.05927l.01658-.02518.00565-.00829.01443-.02057q.04693-.0661.098-.12488L2.45615,1.551l.01267-.01341.00685-.00708q.01919-.019.03883-.03619l.00117.03286q.00211.07357.00033.14906a2.15638,2.15638,0,0,0-.14915.23635,3.68642,3.68642,0,0,0-.1827.38641,4.14338,4.14338,0,0,0-.20957.65646c-.02357.10413-.0431.2084-.057.31127a1.48425,1.48425,0,0,0-.01545.30683l-.01788.02082Q1.86256,3.61912,1.84022,3.64216Zm.43875-.191-.0239.02648-.01219.01286-.00566.0058-.00137.0014c-.01628.01623-.03288.03134-.04963.04561l-.02472.01979L2.14927,3.572l-.01178.008a.2644.2644,0,0,1-.04035.01969l-.00548.00178-.0053.00108-.01726.00154L2.055,3.60062l-.00338-.00136-.00424-.00281-.01151-.012c.003.0036.00081-.00033-.00186-.00515a3.05162,3.05162,0,0,0,.35015-.69875,4.00619,4.00619,0,0,0,.20729-.85384c.01364-.10172.02351-.20312.02889-.30274l.00442-.00531.02542-.02842.00865-.00905.0141-.01361c.01927-.01838.039-.035.0589-.05065l.03088-.023.01572-.0108.00456-.003.00723-.00445.00632-.00377.00362.01339a1.09561,1.09561,0,0,1,.028.15182l.00419.03883.00124.01439.001.01311c.002.028.00323.05649.00388.08519.00115.05079.00028.1028-.00271.1555q-.00182.03208-.005.06456l-.00056.0042-.00318.0221-.00849.05256c-.012.07-.02676.13832-.04365.20508l-.017.03241c-.07309.14043-.14132.28507-.20653.43093-.06795.15189-.13258.30692-.18708.46475l-.015.04472L2.32452,3.397C2.30965,3.4156,2.29439,3.43357,2.279,3.45111Zm.04473-.00239-.00026.00094C2.32923,3.42861,2.32545,3.44255,2.3237,3.44872ZM2.8849,3.034l-.00718.01562-.00856.0182-.02227.04589q-.02368.048-.049.09473c-.01932.03574-.04116.06956-.06266.10287l-.03417.05165-.00664.00973-.01081.01558-.02589.03668c-.0316.044-.06418.08664-.09772.12715q-.02295.02779-.04685.05356l-.01141.01212-.00133.0014-.02519.02353-.02078.01717L2.44,3.66976l-.01151.00561-.005.002-.01726.002L2.401,3.67752l-.00245-.00239-.00187-.00407L2.39486,3.661l-.00028-.00215L2.39444,3.6502c0-.00964.00055-.01951.0014-.02957L2.3987,3.601c.00442-.02774.01067-.05581.01761-.08374l.0057-.022.00365-.0131.01256-.04168.01055-.03322a2.28118,2.28118,0,0,0,.14629-.25266A3.77323,3.77323,0,0,0,2.85592,2.472c.02063-.03906.04177-.07785.06439-.11489l.00793-.01257.01256-.01627c.03043-.03875.06236-.07451.0948-.10831l.0073-.00748.00868-.00862.02681-.02567c.01983-.01864.04-.03623.06025-.053l.00229-.00186L3.14072,2.126c-.00178.025-.004.05015-.00657.07534l-.00063.00624-.00168.0146-.00524.04018c-.0072.05257-.01726.10534-.02931.15843-.00742.033-.01583.066-.02463.09891l-.006.022c.00269-.00987-.004.01385-.00419.01445l-.01785.05932c-.02222.07148-.04715.14244-.07389.21259C2.94424,2.89766,2.91542,2.96633,2.8849,3.034Zm.55394-.36979L3.42591,2.695a.15069.15069,0,0,0-.00664.01382l-.01151.02332c-.01668.0334-.03417.06619-.05218.09847-.01654.02971-.03375.05871-.05136.08724l-.02678.04224-.01364.02072-.004.006-.00669.00959a1.89133,1.89133,0,0,1-.123.15853,1.22832,1.22832,0,0,1-.12574.128c-.03658.03284-.07361.0653-.11094.09421l-.00608.00454L2.892,3.36256l.00349-.01319c-.00217.00814.00316-.01095.004-.01371.00536-.01829.01109-.03635.01766-.05431.00861-.02344.01806-.04669.02786-.0697l.01686-.03878.00929-.02049L2.97444,3.145c.01488-.0319.03027-.06348.04591-.095.07508-.1504.15758-.29446.24475-.43306l.033-.05153.01663-.02526.00835-.01249.00227-.00332q.03442-.05038.07045-.0981c.00884-.0117.01728-.02284.02566-.03542-.01434.02153.00428-.00334.00821-.00815L3.4663,2.339l.03342-.03707.01053-.011L3.51638,2.285c-.00021.025-.00159.05056-.00372.07637l-.00124.01324c.0007-.00748-.00105.00917-.0014.012l-.006.04087c-.0047.02943-.01083.05913-.01775.08874l-.008.03162-.00344.01268-.00613.01984C3.45987,2.60866,3.44981,2.63663,3.43884,2.66419Zm.54573-.00187,0,.00066C3.98163,2.65562,3.98335,2.65778,3.98457,2.66231Z" fill="#ffffff"></path></g><g id="SvgjsG2084" featureKey="nameFeature-0" transform="matrix(0.8997795158050078,0,0,0.8997795158050078,79.73496318646443,6.321225375238646)" fill="#ffffff"><path d="M26.152 23.203 c0.013027 0.14322 0.019512 0.27998 0.019512 0.4102 l0 0.41016 c0 1.4063 -0.19205 2.8516 -0.57617 4.3359 s-0.92773 2.8939 -1.6309 4.2285 s-1.556 2.5455 -2.5586 3.6328 s-2.1225 1.9369 -3.3594 2.5488 c-0.72916 0.35156 -1.5169 0.61197 -2.3633 0.78125 s-1.6992 0.25391 -2.5586 0.25391 c-0.625 0 -1.2402 -0.045566 -1.8457 -0.13672 s-1.1816 -0.20834 -1.7285 -0.35156 c-1.224 -0.35156 -2.3209 -0.89518 -3.291 -1.6309 s-1.8001 -1.5853 -2.4902 -2.5488 s-1.2337 -2.002 -1.6308 -3.1152 s-0.62824 -2.2168 -0.69334 -3.3105 c-0.013027 -0.15625 -0.022793 -0.3125 -0.029297 -0.46875 s-0.0097656 -0.3125 -0.0097656 -0.46875 c0 -1.2109 0.14975 -2.4186 0.44922 -3.623 s0.70637 -2.3568 1.2207 -3.457 s1.1133 -2.1322 1.7969 -3.0957 s1.4128 -1.8099 2.1875 -2.5391 s1.569 -1.3249 2.3828 -1.7871 s1.6113 -0.75195 2.3926 -0.86914 c0.10416 -0.013027 0.17252 -0.022793 0.20508 -0.029297 s0.055352 -0.0097656 0.068379 -0.0097656 s0.026055 0.0032615 0.039082 0.0097656 s0.045586 0.0032426 0.097676 -0.0097848 c0.29947 -0.026035 0.51432 -0.032539 0.64453 -0.019512 s0.20834 0.032559 0.23438 0.058594 c0.026035 0.039063 0.022773 0.065098 -0.0097848 0.078125 s-0.081387 0.039063 -0.14648 0.078125 c-0.026035 0 -0.055332 0.0065041 -0.087891 0.019531 s-0.03582 0.032559 -0.0097848 0.058594 c0.026035 0.065098 0 0.12369 -0.078125 0.17578 s-0.13021 0.091152 -0.15625 0.11719 s-0.032539 0.045566 -0.019512 0.058594 s0.022793 0.019531 0.029297 0.019531 s0.0065041 0.0065041 0 0.019531 s-0.035801 0.032559 -0.087891 0.058594 c-0.15625 0.10416 -0.32227 0.19855 -0.49805 0.28318 s-0.35482 0.18555 -0.53711 0.30273 c-0.9375 0.67709 -1.7643 1.5495 -2.4805 2.6172 s-1.3151 2.2461 -1.7969 3.5352 s-0.84637 2.6465 -1.0938 4.0723 s-0.37109 2.8354 -0.37109 4.2285 l0 0.53711 l0.019531 0.53711 c0.026035 0.5599 0.11719 1.1719 0.27344 1.8359 s0.36783 1.3249 0.63477 1.9824 s0.59246 1.2923 0.97658 1.9043 s0.82357 1.1556 1.3184 1.6308 s1.0482 0.85938 1.6601 1.1523 s1.2825 0.44596 2.0117 0.45898 c1.0938 0.039063 2.0768 -0.13672 2.9492 -0.52734 s1.6439 -0.91471 2.3145 -1.5723 s1.2467 -1.4128 1.7285 -2.2656 s0.88217 -1.7318 1.2012 -2.6367 s0.56965 -1.7969 0.75193 -2.6758 s0.30598 -1.6699 0.37107 -2.373 c0.026035 -0.27344 0.045566 -0.55014 0.058594 -0.83008 s0.019531 -0.55012 0.019531 -0.81053 c0 -1.6667 -0.21811 -3.151 -0.6543 -4.4531 s-1.0156 -2.4023 -1.7383 -3.3008 s-1.5527 -1.5918 -2.4902 -2.0801 s-1.9076 -0.75195 -2.9102 -0.79102 c-0.10416 -0.013027 -0.22785 -0.016289 -0.37107 -0.0097848 s-0.28971 0.0097656 -0.43945 0.0097656 s-0.27996 0.0032615 -0.39064 0.0097656 s-0.17904 0.0032426 -0.20508 -0.0097848 c-0.16928 -0.078125 -0.27344 -0.13672 -0.3125 -0.17578 l-0.039063 -0.039063 c0 -0.10416 0.026035 -0.18229 0.078125 -0.23438 l0.19531 -0.097656 c0.065098 -0.026035 0.12695 -0.055332 0.18555 -0.087891 s0.10742 -0.061855 0.14648 -0.087891 c0.026035 -0.039063 0.019531 -0.068359 -0.019531 -0.087891 s-0.058594 -0.074863 -0.058594 -0.16602 c-0.026035 -0.065098 -0.0065041 -0.12695 0.058594 -0.18555 s0.11066 -0.087891 0.1367 -0.087891 c0.11719 -0.039063 0.19857 -0.061855 0.24414 -0.068359 s0.10742 -0.0097656 0.18555 -0.0097656 c0.13021 -0.013027 0.23764 -0.029297 0.32227 -0.048828 s0.16275 -0.042324 0.23438 -0.068359 s0.15301 -0.048828 0.24416 -0.068359 s0.21484 -0.035801 0.37109 -0.048828 c0.11719 -0.026035 0.2474 -0.039063 0.39063 -0.039063 s0.35807 -0.013027 0.64453 -0.039063 c1.1198 -0.026035 2.1451 0.10092 3.0762 0.38086 s1.7708 0.68033 2.5195 1.2012 s1.403 1.1361 1.9629 1.8457 s1.0319 1.4779 1.416 2.3047 s0.68359 1.6895 0.89844 2.5879 s0.3483 1.7904 0.40039 2.6758 z M56.4013046875 12.597999999999999 c0.026035 0.23438 0.039311 0.71922 0.039311 1.4549 s-0.0097656 1.6374 -0.029297 2.7051 s-0.045566 2.2592 -0.078125 3.5742 s-0.074883 2.6791 -0.12697 4.0918 s-0.10742 2.832 -0.16602 4.2578 s-0.12045 2.7768 -0.18555 4.0527 s-0.13672 2.4381 -0.21484 3.4863 s-0.15625 1.8978 -0.23438 2.5488 c0 0.078125 -0.035801 0.14648 -0.10742 0.20508 s-0.14648 0.15951 -0.22461 0.30273 c-0.078125 0.13021 -0.15625 0.20184 -0.23438 0.21486 s-0.14322 0.013027 -0.19531 0 s-0.091152 -0.013027 -0.11719 0 s-0.026035 0.078125 0 0.19531 c0.026035 0.078125 -0.016289 0.13998 -0.12697 0.18555 s-0.20508 0.035801 -0.2832 -0.029297 c-0.10416 -0.078125 -0.22785 -0.17252 -0.37107 -0.2832 s-0.23438 -0.16602 -0.27344 -0.16602 c-0.078125 -0.013027 -0.10416 0.019531 -0.078125 0.097656 s0.061836 0.16275 0.1074 0.25391 s0.078125 0.17904 0.097656 0.26367 s-0.022793 0.13346 -0.12695 0.14648 c-0.19531 0.026035 -0.41992 -0.019531 -0.67383 -0.13672 s-0.49154 -0.25391 -0.71289 -0.41016 c-0.18229 -0.14322 -0.45572 -0.46223 -0.82031 -0.95701 s-0.79754 -1.123 -1.2988 -1.8848 s-1.0547 -1.6309 -1.6602 -2.6074 s-1.2337 -2.0182 -1.8848 -3.125 s-1.3151 -2.2525 -1.9922 -3.4375 s-1.3346 -2.3666 -1.9727 -3.5449 s-1.25 -2.3275 -1.8359 -3.4473 s-1.1133 -2.1615 -1.582 -3.125 c-0.05209 0.54688 -0.097656 1.2923 -0.13672 2.2363 s-0.074863 1.9922 -0.10742 3.1445 s-0.061855 2.3666 -0.087891 3.6426 s-0.048828 2.5326 -0.068359 3.7695 s-0.035801 2.4088 -0.048828 3.5156 s-0.026055 2.0572 -0.039082 2.8516 c0 0.52084 -0.0097656 0.88867 -0.029297 1.1035 s-0.039063 0.36133 -0.058594 0.43945 s-0.039063 0.13346 -0.058594 0.16602 s-0.022793 0.12695 -0.0097656 0.2832 c0 0.41666 -0.026035 0.79752 -0.078125 1.1426 s-0.16928 0.53711 -0.35156 0.57617 c-0.10416 0.05209 -0.20182 0.03582 -0.29297 -0.048809 s-0.20834 -0.10742 -0.35156 -0.068359 c-0.039063 0 -0.087891 0.035801 -0.14648 0.10742 s-0.15951 0.10742 -0.30273 0.10742 c-0.11719 0 -0.26041 -0.05209 -0.42969 -0.15625 s-0.27996 -0.29297 -0.33205 -0.56641 l-0.078125 -0.72266 c-0.013027 -0.078125 -0.029297 -0.13021 -0.048828 -0.15625 s-0.039063 -0.065098 -0.058594 -0.11719 s-0.035801 -0.13998 -0.048828 -0.26367 s-0.026055 -0.33527 -0.039082 -0.63475 c0 -0.078125 0.013027 -0.44596 0.039063 -1.1035 s0.061836 -1.5072 0.1074 -2.5488 s0.097656 -2.2266 0.15625 -3.5547 s0.12369 -2.7018 0.19531 -4.1211 s0.14324 -2.832 0.21486 -4.2383 s0.14975 -2.7084 0.23438 -3.9063 s0.16602 -2.2428 0.24414 -3.1348 s0.14975 -1.5267 0.21484 -1.9043 c-0.065098 -0.15625 -0.11393 -0.306 -0.14648 -0.44922 s-0.048828 -0.27344 -0.048828 -0.39063 c-0.013027 -0.078125 -0.0032615 -0.13021 0.029297 -0.15625 s0.078125 -0.048828 0.13672 -0.068359 s0.12045 -0.042324 0.18555 -0.068359 s0.1302 -0.078125 0.19529 -0.15625 c0.026035 -0.039063 0.048828 -0.13346 0.068359 -0.2832 s0.061855 -0.22461 0.12695 -0.22461 c0.18229 0 0.33203 -0.042324 0.44922 -0.12695 s0.27994 -0.13996 0.48828 -0.166 c0 -0.22135 0.058594 -0.36457 0.17578 -0.42967 c0.05209 -0.039063 0.11068 -0.05209 0.17578 -0.039063 c0.22135 0.026035 0.39387 0.11393 0.51756 0.26367 s0.21809 0.28973 0.28318 0.41994 c0.065098 0.15625 0.11719 0.27344 0.15625 0.35156 s0.091152 0.18881 0.15625 0.33203 c0.091152 0.14322 0.2702 0.44922 0.53713 0.91797 s0.5957 1.0547 0.98633 1.7578 s0.83334 1.4941 1.3281 2.373 s1.0124 1.8099 1.5527 2.793 s1.097 1.9857 1.6699 3.0078 s1.1328 2.0215 1.6797 2.998 s1.0677 1.9076 1.5625 2.793 s0.944 1.6829 1.3477 2.3926 s0.74219 1.3021 1.0156 1.7773 s0.46225 0.79102 0.56641 0.94727 c0.26041 0.3776 0.4427 0.58918 0.54686 0.63475 s0.22785 -0.074883 0.37107 -0.36135 c0.065098 -0.13021 0.12695 -0.43295 0.18555 -0.9082 s0.11719 -1.0775 0.17578 -1.8066 s0.11068 -1.556 0.15625 -2.4805 s0.087891 -1.8945 0.12695 -2.9102 s0.071621 -2.0572 0.097656 -3.125 s0.042305 -2.1029 0.048809 -3.1055 s0.0065041 -1.9466 0 -2.832 s-0.029297 -1.6667 -0.068359 -2.3438 c-0.013027 -0.36459 -0.019531 -0.69012 -0.019531 -0.97658 c0 -0.2474 0.013027 -0.47527 0.039063 -0.68361 s0.071602 -0.3125 0.1367 -0.3125 c0.091152 -0.065098 0.17254 -0.10742 0.24416 -0.12695 s0.13021 -0.026035 0.17578 -0.019531 s0.087891 0.01627 0.12695 0.029297 s0.071621 0.013027 0.097656 0 s0.039063 -0.032559 0.039063 -0.058594 s0.0032615 -0.058594 0.0097656 -0.097656 s0.022773 -0.081387 0.048809 -0.12695 s0.084629 -0.081367 0.17578 -0.1074 c0.10416 -0.039063 0.18555 -0.061855 0.24414 -0.068359 s0.10742 -0.0032426 0.14648 0.0097848 s0.071621 0.026055 0.097656 0.039082 s0.065098 0.006523 0.11719 -0.019512 c0.10416 -0.05209 0.18879 -0.10092 0.25389 -0.14648 s0.12369 -0.061836 0.17578 -0.048809 s0.094414 0.068359 0.12697 0.16602 s0.061855 0.26367 0.087891 0.49805 z M86.200734375 37.2461 c0.065098 0.091152 0.10408 0.15612 0.11711 0.19518 s0.0097656 0.068359 -0.0097656 0.087891 s-0.048828 0.035801 -0.087891 0.048828 s-0.071621 0.032559 -0.097656 0.058594 c-0.065098 0.039063 -0.081367 0.078125 -0.048809 0.11719 s0.0097656 0.11068 -0.068359 0.21484 c-0.05209 0.039063 -0.058594 0.081387 -0.019531 0.12695 s0.045566 0.081367 0.019531 0.1074 c-0.19531 0.29947 -0.34506 0.48828 -0.44922 0.56641 c-0.10416 0 -0.19531 0.013027 -0.27344 0.039063 c-0.039063 0.013027 -0.065098 0.026055 -0.078125 0.039082 c-0.039063 0.039063 -0.078125 0.087891 -0.11719 0.14648 s-0.071621 0.11068 -0.097656 0.15625 s-0.055332 0.078125 -0.087891 0.097656 s-0.068359 0.0032615 -0.10742 -0.048828 c-0.039063 -0.065098 -0.087891 -0.097656 -0.14648 -0.097656 s-0.10092 0.019531 -0.12695 0.058594 c-0.026035 0.026035 -0.058594 0.055332 -0.097656 0.087891 s-0.061855 0.065117 -0.068359 0.097676 s0.0097656 0.065117 0.048828 0.097676 s0.13021 0.068359 0.27344 0.10742 c0.32553 0.091152 0.38738 0.17904 0.18557 0.26367 s-0.58268 0.10742 -1.1426 0.068359 c-0.53385 -0.039063 -1.0417 -0.074863 -1.5234 -0.10742 s-0.96029 -0.058594 -1.4355 -0.078125 s-0.96027 -0.035801 -1.4551 -0.048828 s-1.0221 -0.013027 -1.582 0 c-0.74219 0.013027 -1.5267 0.045586 -2.3535 0.097676 s-1.6471 0.11068 -2.4609 0.17578 s-1.5951 0.13346 -2.3438 0.20508 s-1.4225 0.13998 -2.0215 0.20508 s-1.1035 0.12695 -1.5137 0.18555 s-0.67383 0.10092 -0.79102 0.12695 c-0.11719 0.039063 -0.19857 0.055332 -0.24414 0.048828 s-0.078125 -0.042305 -0.097656 -0.1074 s-0.035801 -0.16275 -0.048828 -0.29297 s-0.045586 -0.306 -0.097676 -0.52734 c-0.039063 -0.13021 -0.094395 -0.26367 -0.16602 -0.40039 s-0.12045 -0.24414 -0.14648 -0.32227 c-0.039063 -0.20834 -0.05209 -0.35482 -0.039063 -0.43945 s0.091152 -0.13996 0.23438 -0.166 l2.4023 -0.64453 c-0.14322 -0.89844 -0.24414 -1.9499 -0.30273 -3.1543 s-0.087891 -2.5098 -0.087891 -3.916 c0 -1.2109 0.026035 -2.4512 0.078125 -3.7207 s0.13021 -2.5488 0.23438 -3.8379 c0.26041 -3.2553 0.47852 -5.752 0.6543 -7.4902 s0.3418 -2.7506 0.49805 -3.0371 c0.039063 -0.065098 0.071621 -0.12695 0.097656 -0.18555 s0.065098 -0.087891 0.11719 -0.087891 c0.078125 -0.039063 0.13672 -0.032559 0.17578 0.019531 s0.11068 0.058594 0.21484 0.019531 c0.026035 0 0.048828 -0.01627 0.068359 -0.048828 s0.048828 -0.068359 0.087891 -0.10742 l0.039063 -0.019531 c0.026035 -0.026035 0.078125 -0.058594 0.15625 -0.097656 c0.19531 0.065098 0.33854 0.12369 0.42969 0.17578 c0.05209 0.026035 0.084648 0.045566 0.097676 0.058594 c0.078125 0.039063 0.15625 0.10742 0.23438 0.20508 s0.14975 0.10742 0.21484 0.029297 l0.039063 -0.039063 c0.026035 -0.026035 0.065098 -0.039063 0.11719 -0.039063 l0.11719 0.078125 l0.097656 0.078125 c0.039063 0.039063 0.071621 0.065098 0.097656 0.078125 c0.065098 0.039063 0.12369 0.091152 0.17578 0.15625 s0.10418 0.18879 0.15627 0.37107 c0.05209 0.23438 0.061855 0.71615 0.029297 1.4453 s-0.084648 1.6276 -0.15627 2.6953 s-0.14648 2.2656 -0.22461 3.5938 s-0.12369 2.7084 -0.13672 4.1406 c-0.013027 0.66406 -0.032559 1.377 -0.058594 2.1387 s-0.05207 1.543 -0.078105 2.3438 s-0.048828 1.5918 -0.068359 2.373 s-0.029297 1.5234 -0.029297 2.2266 c0 0.5599 0.0032615 1.084 0.0097656 1.5723 s0.042305 0.9082 0.1074 1.2598 c1.4193 -0.29947 3.0111 -0.56641 4.7754 -0.80078 s3.649 -0.35156 5.6543 -0.35156 c0.72916 0 1.3379 0.035801 1.8262 0.10742 s0.89518 0.17254 1.2207 0.30275 c0.078125 0.026035 0.18881 0.074863 0.33203 0.14648 s0.29297 0.15301 0.44922 0.24416 s0.29947 0.1823 0.42969 0.27346 s0.22137 0.17578 0.27346 0.25391 z M98.7744453125 12.715 c0 2.3568 -0.045566 4.7492 -0.13672 7.1777 s-0.15625 4.8404 -0.19531 7.2363 c-0.013027 1.0938 -0.0032615 2.1777 0.029297 3.252 s0.071621 2.0963 0.11719 3.0664 s0.087891 1.8555 0.12695 2.6563 s0.058594 1.4746 0.058594 2.0215 c0 0.3776 -0.013027 0.68033 -0.039063 0.9082 s-0.071602 0.36133 -0.1367 0.40039 c-0.065098 0.065098 -0.12369 0.10416 -0.17578 0.11719 s-0.10418 0.019531 -0.15627 0.019531 s-0.10742 -0.0032615 -0.16602 -0.0097656 s-0.12695 0.0097656 -0.20508 0.048828 c-0.091152 0.039063 -0.14975 0.081387 -0.17578 0.12695 s-0.05207 0.094395 -0.078105 0.14648 s-0.065098 0.10418 -0.11719 0.15627 s-0.14324 0.10418 -0.27346 0.15627 c-0.16928 0.039063 -0.32879 -0.0032615 -0.47854 -0.12695 s-0.29623 -0.22461 -0.43945 -0.30273 c-0.22135 -0.13021 -0.40039 -0.23764 -0.53711 -0.32227 s-0.26367 -0.21809 -0.38086 -0.40037 c-0.091152 -0.15625 -0.16928 -0.39389 -0.23438 -0.71289 s-0.11719 -0.6966 -0.15625 -1.1328 s-0.065098 -0.92121 -0.078125 -1.4551 s-0.019531 -1.0872 -0.019531 -1.6601 c0 -0.65104 0.0065041 -1.3053 0.019531 -1.9629 s0.029297 -1.2858 0.048828 -1.8848 s0.035801 -1.1393 0.048828 -1.6211 s0.026055 -0.8724 0.039082 -1.1719 c0.026035 -0.9375 0.061836 -1.9206 0.1074 -2.9492 s0.091133 -2.0541 0.1367 -3.0762 s0.094395 -2.0084 0.14648 -2.959 s0.10418 -1.8197 0.15627 -2.6074 s0.10092 -1.4583 0.14648 -2.0117 s0.094395 -0.94074 0.14648 -1.1621 c0.078125 -0.27344 0.21484 -0.42969 0.41016 -0.46875 c0.091152 -0.039063 0.16602 -0.032559 0.22461 0.019531 s0.12695 0.019531 0.20508 -0.097656 c0.026035 -0.065098 0.065098 -0.10416 0.11719 -0.11719 s0.10418 -0.019531 0.15627 -0.019531 l0.15625 0 l0.13672 -0.039063 c0.078125 -0.078125 0.15951 -0.094395 0.24414 -0.048828 s0.14648 0.087891 0.18555 0.12695 c0.039063 0.091152 0.091152 0.15951 0.15625 0.20508 s0.13672 0.035801 0.21484 -0.029297 c0.039063 -0.039063 0.094395 -0.058594 0.16602 -0.058594 s0.12045 0.032559 0.14648 0.097656 c0.039063 0.065098 0.10416 0.1302 0.19531 0.19529 s0.13672 0.15625 0.13672 0.27344 z M130.68353125 12.597999999999999 c0.026035 0.23438 0.039311 0.71922 0.039311 1.4549 s-0.0097656 1.6374 -0.029297 2.7051 s-0.045566 2.2592 -0.078125 3.5742 s-0.074883 2.6791 -0.12697 4.0918 s-0.10742 2.832 -0.16602 4.2578 s-0.12045 2.7768 -0.18555 4.0527 s-0.13672 2.4381 -0.21484 3.4863 s-0.15625 1.8978 -0.23438 2.5488 c0 0.078125 -0.035801 0.14648 -0.10742 0.20508 s-0.14648 0.15951 -0.22461 0.30273 c-0.078125 0.13021 -0.15625 0.20184 -0.23438 0.21486 s-0.14322 0.013027 -0.19531 0 s-0.091152 -0.013027 -0.11719 0 s-0.026035 0.078125 0 0.19531 c0.026035 0.078125 -0.016289 0.13998 -0.12697 0.18555 s-0.20508 0.035801 -0.2832 -0.029297 c-0.10416 -0.078125 -0.22785 -0.17252 -0.37107 -0.2832 s-0.23438 -0.16602 -0.27344 -0.16602 c-0.078125 -0.013027 -0.10416 0.019531 -0.078125 0.097656 s0.061836 0.16275 0.1074 0.25391 s0.078125 0.17904 0.097656 0.26367 s-0.022793 0.13346 -0.12695 0.14648 c-0.19531 0.026035 -0.41992 -0.019531 -0.67383 -0.13672 s-0.49154 -0.25391 -0.71289 -0.41016 c-0.18229 -0.14322 -0.45572 -0.46223 -0.82031 -0.95701 s-0.79754 -1.123 -1.2988 -1.8848 s-1.0547 -1.6309 -1.6602 -2.6074 s-1.2337 -2.0182 -1.8848 -3.125 s-1.3151 -2.2525 -1.9922 -3.4375 s-1.3346 -2.3666 -1.9727 -3.5449 s-1.25 -2.3275 -1.8359 -3.4473 s-1.1133 -2.1615 -1.582 -3.125 c-0.05209 0.54688 -0.097656 1.2923 -0.13672 2.2363 s-0.074863 1.9922 -0.10742 3.1445 s-0.061855 2.3666 -0.087891 3.6426 s-0.048828 2.5326 -0.068359 3.7695 s-0.035801 2.4088 -0.048828 3.5156 s-0.026055 2.0572 -0.039082 2.8516 c0 0.52084 -0.0097656 0.88867 -0.029297 1.1035 s-0.039063 0.36133 -0.058594 0.43945 s-0.039063 0.13346 -0.058594 0.16602 s-0.022793 0.12695 -0.0097656 0.2832 c0 0.41666 -0.026035 0.79752 -0.078125 1.1426 s-0.16928 0.53711 -0.35156 0.57617 c-0.10416 0.05209 -0.20182 0.03582 -0.29297 -0.048809 s-0.20834 -0.10742 -0.35156 -0.068359 c-0.039063 0 -0.087891 0.035801 -0.14648 0.10742 s-0.15951 0.10742 -0.30273 0.10742 c-0.11719 0 -0.26041 -0.05209 -0.42969 -0.15625 s-0.27996 -0.29297 -0.33205 -0.56641 l-0.078125 -0.72266 c-0.013027 -0.078125 -0.029297 -0.13021 -0.048828 -0.15625 s-0.039063 -0.065098 -0.058594 -0.11719 s-0.035801 -0.13998 -0.048828 -0.26367 s-0.026055 -0.33527 -0.039082 -0.63475 c0 -0.078125 0.013027 -0.44596 0.039063 -1.1035 s0.061836 -1.5072 0.1074 -2.5488 s0.097656 -2.2266 0.15625 -3.5547 s0.12369 -2.7018 0.19531 -4.1211 s0.14324 -2.832 0.21486 -4.2383 s0.14975 -2.7084 0.23438 -3.9063 s0.16602 -2.2428 0.24414 -3.1348 s0.14975 -1.5267 0.21484 -1.9043 c-0.065098 -0.15625 -0.11393 -0.306 -0.14648 -0.44922 s-0.048828 -0.27344 -0.048828 -0.39063 c-0.013027 -0.078125 -0.0032615 -0.13021 0.029297 -0.15625 s0.078125 -0.048828 0.13672 -0.068359 s0.12045 -0.042324 0.18555 -0.068359 s0.1302 -0.078125 0.19529 -0.15625 c0.026035 -0.039063 0.048828 -0.13346 0.068359 -0.2832 s0.061855 -0.22461 0.12695 -0.22461 c0.18229 0 0.33203 -0.042324 0.44922 -0.12695 s0.27994 -0.13996 0.48828 -0.166 c0 -0.22135 0.058594 -0.36457 0.17578 -0.42967 c0.05209 -0.039063 0.11068 -0.05209 0.17578 -0.039063 c0.22135 0.026035 0.39387 0.11393 0.51756 0.26367 s0.21809 0.28973 0.28318 0.41994 c0.065098 0.15625 0.11719 0.27344 0.15625 0.35156 s0.091152 0.18881 0.15625 0.33203 c0.091152 0.14322 0.2702 0.44922 0.53713 0.91797 s0.5957 1.0547 0.98633 1.7578 s0.83334 1.4941 1.3281 2.373 s1.0124 1.8099 1.5527 2.793 s1.097 1.9857 1.6699 3.0078 s1.1328 2.0215 1.6797 2.998 s1.0677 1.9076 1.5625 2.793 s0.944 1.6829 1.3477 2.3926 s0.74219 1.3021 1.0156 1.7773 s0.46225 0.79102 0.56641 0.94727 c0.26041 0.3776 0.4427 0.58918 0.54686 0.63475 s0.22785 -0.074883 0.37107 -0.36135 c0.065098 -0.13021 0.12695 -0.43295 0.18555 -0.9082 s0.11719 -1.0775 0.17578 -1.8066 s0.11068 -1.556 0.15625 -2.4805 s0.087891 -1.8945 0.12695 -2.9102 s0.071621 -2.0572 0.097656 -3.125 s0.042305 -2.1029 0.048809 -3.1055 s0.0065041 -1.9466 0 -2.832 s-0.029297 -1.6667 -0.068359 -2.3438 c-0.013027 -0.36459 -0.019531 -0.69012 -0.019531 -0.97658 c0 -0.2474 0.013027 -0.47527 0.039063 -0.68361 s0.071602 -0.3125 0.1367 -0.3125 c0.091152 -0.065098 0.17254 -0.10742 0.24416 -0.12695 s0.13021 -0.026035 0.17578 -0.019531 s0.087891 0.01627 0.12695 0.029297 s0.071621 0.013027 0.097656 0 s0.039063 -0.032559 0.039063 -0.058594 s0.0032615 -0.058594 0.0097656 -0.097656 s0.022773 -0.081387 0.048809 -0.12695 s0.084629 -0.081367 0.17578 -0.1074 c0.10416 -0.039063 0.18555 -0.061855 0.24414 -0.068359 s0.10742 -0.0032426 0.14648 0.0097848 s0.071621 0.026055 0.097656 0.039082 s0.065098 0.006523 0.11719 -0.019512 c0.10416 -0.05209 0.18879 -0.10092 0.25389 -0.14648 s0.12369 -0.061836 0.17578 -0.048809 s0.094414 0.068359 0.12697 0.16602 s0.061855 0.26367 0.087891 0.49805 z M161.5189609375 36.3672 c0 0.05209 -0.032578 0.14986 -0.097676 0.29309 s-0.13996 0.29297 -0.22459 0.44922 s-0.17578 0.30273 -0.27344 0.43945 s-0.17904 0.21811 -0.24414 0.24414 c-0.039063 0.026035 -0.21158 0.094395 -0.51758 0.20508 s-0.71289 0.2409 -1.2207 0.39064 s-1.1035 0.30926 -1.7871 0.47854 s-1.4258 0.32879 -2.2266 0.47854 s-1.6537 0.27344 -2.5586 0.37109 s-1.8262 0.15299 -2.7637 0.16602 c-0.78125 0.026035 -1.5104 0.05207 -2.1875 0.078105 s-1.3086 0.039063 -1.8945 0.039063 c-0.32553 0 -0.63477 -0.0065041 -0.92773 -0.019531 s-0.56967 -0.032559 -0.83008 -0.058594 c-0.36459 -0.039063 -0.71615 -0.084629 -1.0547 -0.13672 c-0.29947 -0.05209 -0.60871 -0.11719 -0.92771 -0.19531 s-0.5957 -0.18229 -0.83008 -0.3125 c-0.065098 -0.013027 -0.12369 -0.045586 -0.17578 -0.097676 c-0.10416 -0.078125 -0.14973 -0.18881 -0.1367 -0.33203 c-0.11719 -0.065098 -0.20182 -0.13672 -0.25391 -0.21484 c-0.026035 -0.039063 -0.045566 -0.065098 -0.058594 -0.078125 c0 -0.026035 0.0065041 -0.058594 0.019531 -0.097656 c0.013027 -0.05209 0.071621 -0.14975 0.17578 -0.29297 c-0.091152 -0.013027 -0.15951 -0.039063 -0.20508 -0.078125 s-0.081367 -0.084629 -0.1074 -0.13672 c-0.039063 -0.05209 -0.058594 -0.11719 -0.058594 -0.19531 s0.013027 -0.15625 0.039063 -0.23438 c0.026035 -0.065098 0.061836 -0.13996 0.1074 -0.22459 s0.12043 -0.17252 0.22459 -0.26367 c0 -0.16928 0.019531 -0.29297 0.058594 -0.37109 c0.013027 -0.05209 0.032559 -0.084648 0.058594 -0.097676 c0.013027 -0.039063 0.065117 -0.078125 0.15627 -0.11719 s0.19531 -0.071621 0.3125 -0.097656 s0.23764 -0.045566 0.36133 -0.058594 s0.23111 -0.013027 0.32227 0 l0.039063 0.039063 c0.026035 -0.85938 0.058594 -1.7904 0.097656 -2.793 s0.078125 -1.9336 0.11719 -2.793 c0.05209 -1.0026 0.10418 -1.9986 0.15627 -2.9883 c0.05209 -1.224 0.13021 -2.5131 0.23438 -3.8672 c0.091152 -1.1588 0.20184 -2.4609 0.33205 -3.9063 s0.29949 -2.9166 0.50783 -4.4141 l-2.2461 0.039063 c-0.14322 0 -0.27994 -0.019531 -0.41016 -0.058594 c-0.10416 -0.026035 -0.21484 -0.071602 -0.33203 -0.1367 s-0.20182 -0.16275 -0.25391 -0.29297 c-0.20834 -0.026035 -0.36133 -0.065098 -0.45898 -0.11719 s-0.17252 -0.10418 -0.22461 -0.15627 s-0.078125 -0.11719 -0.078125 -0.19531 c0.026035 -0.14322 0.071602 -0.25391 0.1367 -0.33203 s0.19531 -0.16928 0.39063 -0.27344 c0.22135 -0.078125 0.38086 -0.17904 0.47852 -0.30273 s0.20508 -0.19855 0.32227 -0.22459 c0.05209 -0.013027 0.35809 -0.074883 0.91799 -0.18557 s1.2695 -0.2409 2.1289 -0.39064 s1.8229 -0.29297 2.8906 -0.42969 s2.1289 -0.23764 3.1836 -0.30273 c0.89844 -0.065098 1.7936 -0.10416 2.6855 -0.11719 s1.7285 -0.019531 2.5098 -0.019531 c1.0677 0 1.9662 0.013027 2.6953 0.039063 s1.1654 0.058594 1.3086 0.097656 c0.091152 0.026035 0.1823 0.071602 0.27346 0.1367 c0.065098 0.065098 0.13672 0.15299 0.21484 0.26367 s0.14322 0.25717 0.19531 0.43945 c0.10416 0.05209 0.17902 0.10092 0.22459 0.14648 s0.081367 0.087891 0.1074 0.12695 l0.058594 0.11719 l0 0.2832 l-0.039063 0.2832 c-0.013027 0.026035 -0.039063 0.05207 -0.078125 0.078105 c-0.026035 0.026035 -0.061836 0.05207 -0.1074 0.078105 s-0.1009 0.05207 -0.166 0.078105 c0.013027 0.18229 0.013027 0.32551 0 0.42967 s-0.032559 0.18879 -0.058594 0.25389 s-0.058594 0.11719 -0.097656 0.15625 c-0.091152 0.065098 -0.24414 0.11393 -0.45898 0.14648 s-0.60873 0.048828 -1.1816 0.048828 l-12.09 0.25391 c-0.039063 0.3776 -0.074863 0.82355 -0.10742 1.3379 s-0.065117 1.0645 -0.097676 1.6504 s-0.065117 1.1849 -0.097676 1.7969 s-0.061855 1.2012 -0.087891 1.7676 s-0.05207 1.0905 -0.078105 1.5723 s-0.045566 0.87891 -0.058594 1.1914 c0.49479 -0.14322 1.0417 -0.25715 1.6406 -0.34178 s1.1589 -0.15299 1.6797 -0.20508 c0.61197 -0.05209 1.2174 -0.097656 1.8164 -0.13672 c0.3776 -0.026035 0.74219 -0.039063 1.0938 -0.039063 l1.0156 0 c1.3021 0 2.308 0.026035 3.0176 0.078125 s1.1165 0.091152 1.2207 0.11719 c0.078125 0.013027 0.16275 0.065117 0.25391 0.15627 s0.17578 0.19857 0.25391 0.32227 s0.14648 0.26041 0.20508 0.41016 s0.087891 0.2832 0.087891 0.40039 c0 0.22135 -0.058594 0.45572 -0.17578 0.70313 s-0.21484 0.44922 -0.29297 0.60547 c-0.10416 0.16928 -0.24088 0.33203 -0.41016 0.48828 s-0.3125 0.22135 -0.42969 0.19531 c-0.039063 0 -0.20182 -0.0065041 -0.48828 -0.019531 s-0.64129 -0.029297 -1.0645 -0.048828 s-0.88217 -0.035801 -1.377 -0.048828 s-0.97656 -0.026055 -1.4453 -0.039082 s-0.88867 -0.022793 -1.2598 -0.029297 s-0.64127 -0.0097656 -0.81055 -0.0097656 c-0.20834 0 -0.51434 0.019531 -0.91799 0.058594 c-0.33854 0.026035 -0.80729 0.071602 -1.4063 0.1367 s-1.3607 0.15625 -2.2852 0.27344 c-0.026035 0.53385 -0.039063 1.0938 -0.039063 1.6797 l0 1.8555 c0 0.89844 0.013027 1.7871 0.039063 2.666 s0.071602 1.6699 0.1367 2.373 l2.1094 0 c0.74219 0 1.4779 -0.0097656 2.207 -0.029297 s1.3932 -0.048828 1.9922 -0.087891 c0.8724 -0.065098 1.7025 -0.13672 2.4902 -0.21484 s1.4941 -0.14975 2.1191 -0.21484 s1.1458 -0.11393 1.5625 -0.14648 s0.67707 -0.042324 0.78123 -0.029297 c0.10416 0.026035 0.24414 0.032539 0.41992 0.019512 s0.36133 -0.032559 0.55664 -0.058594 s0.38412 -0.05207 0.56641 -0.078105 s0.32551 -0.05207 0.42967 -0.078105 c0.091152 -0.013027 0.19531 0.0097656 0.3125 0.068359 s0.22787 0.13672 0.33203 0.23438 s0.19205 0.19857 0.26367 0.30273 s0.11395 0.18229 0.12697 0.23438 z M203.5595078125 12.597999999999999 c0.026035 0.23438 0.039311 0.71922 0.039311 1.4549 s-0.0097656 1.6374 -0.029297 2.7051 s-0.045566 2.2592 -0.078125 3.5742 s-0.074883 2.6791 -0.12697 4.0918 s-0.10742 2.832 -0.16602 4.2578 s-0.12045 2.7768 -0.18555 4.0527 s-0.13672 2.4381 -0.21484 3.4863 s-0.15625 1.8978 -0.23438 2.5488 c0 0.078125 -0.035801 0.14648 -0.10742 0.20508 s-0.14648 0.15951 -0.22461 0.30273 c-0.078125 0.13021 -0.15625 0.20184 -0.23438 0.21486 s-0.14322 0.013027 -0.19531 0 s-0.091152 -0.013027 -0.11719 0 s-0.026035 0.078125 0 0.19531 c0.026035 0.078125 -0.016289 0.13998 -0.12697 0.18555 s-0.20508 0.035801 -0.2832 -0.029297 c-0.10416 -0.078125 -0.22785 -0.17252 -0.37107 -0.2832 s-0.23438 -0.16602 -0.27344 -0.16602 c-0.078125 -0.013027 -0.10416 0.019531 -0.078125 0.097656 s0.061836 0.16275 0.1074 0.25391 s0.078125 0.17904 0.097656 0.26367 s-0.022793 0.13346 -0.12695 0.14648 c-0.19531 0.026035 -0.41992 -0.019531 -0.67383 -0.13672 s-0.49154 -0.25391 -0.71289 -0.41016 c-0.18229 -0.14322 -0.45572 -0.46223 -0.82031 -0.95701 s-0.79754 -1.123 -1.2988 -1.8848 s-1.0547 -1.6309 -1.6602 -2.6074 s-1.2337 -2.0182 -1.8848 -3.125 s-1.3151 -2.2525 -1.9922 -3.4375 s-1.3346 -2.3666 -1.9727 -3.5449 s-1.25 -2.3275 -1.8359 -3.4473 s-1.1133 -2.1615 -1.582 -3.125 c-0.05209 0.54688 -0.097656 1.2923 -0.13672 2.2363 s-0.074863 1.9922 -0.10742 3.1445 s-0.061855 2.3666 -0.087891 3.6426 s-0.048828 2.5326 -0.068359 3.7695 s-0.035801 2.4088 -0.048828 3.5156 s-0.026055 2.0572 -0.039082 2.8516 c0 0.52084 -0.0097656 0.88867 -0.029297 1.1035 s-0.039063 0.36133 -0.058594 0.43945 s-0.039063 0.13346 -0.058594 0.16602 s-0.022793 0.12695 -0.0097656 0.2832 c0 0.41666 -0.026035 0.79752 -0.078125 1.1426 s-0.16928 0.53711 -0.35156 0.57617 c-0.10416 0.05209 -0.20182 0.03582 -0.29297 -0.048809 s-0.20834 -0.10742 -0.35156 -0.068359 c-0.039063 0 -0.087891 0.035801 -0.14648 0.10742 s-0.15951 0.10742 -0.30273 0.10742 c-0.11719 0 -0.26041 -0.05209 -0.42969 -0.15625 s-0.27996 -0.29297 -0.33205 -0.56641 l-0.078125 -0.72266 c-0.013027 -0.078125 -0.029297 -0.13021 -0.048828 -0.15625 s-0.039063 -0.065098 -0.058594 -0.11719 s-0.035801 -0.13998 -0.048828 -0.26367 s-0.026055 -0.33527 -0.039082 -0.63475 c0 -0.078125 0.013027 -0.44596 0.039063 -1.1035 s0.061836 -1.5072 0.1074 -2.5488 s0.097656 -2.2266 0.15625 -3.5547 s0.12369 -2.7018 0.19531 -4.1211 s0.14324 -2.832 0.21486 -4.2383 s0.14975 -2.7084 0.23438 -3.9063 s0.16602 -2.2428 0.24414 -3.1348 s0.14975 -1.5267 0.21484 -1.9043 c-0.065098 -0.15625 -0.11393 -0.306 -0.14648 -0.44922 s-0.048828 -0.27344 -0.048828 -0.39063 c-0.013027 -0.078125 -0.0032615 -0.13021 0.029297 -0.15625 s0.078125 -0.048828 0.13672 -0.068359 s0.12045 -0.042324 0.18555 -0.068359 s0.1302 -0.078125 0.19529 -0.15625 c0.026035 -0.039063 0.048828 -0.13346 0.068359 -0.2832 s0.061855 -0.22461 0.12695 -0.22461 c0.18229 0 0.33203 -0.042324 0.44922 -0.12695 s0.27994 -0.13996 0.48828 -0.166 c0 -0.22135 0.058594 -0.36457 0.17578 -0.42967 c0.05209 -0.039063 0.11068 -0.05209 0.17578 -0.039063 c0.22135 0.026035 0.39387 0.11393 0.51756 0.26367 s0.21809 0.28973 0.28318 0.41994 c0.065098 0.15625 0.11719 0.27344 0.15625 0.35156 s0.091152 0.18881 0.15625 0.33203 c0.091152 0.14322 0.2702 0.44922 0.53713 0.91797 s0.5957 1.0547 0.98633 1.7578 s0.83334 1.4941 1.3281 2.373 s1.0124 1.8099 1.5527 2.793 s1.097 1.9857 1.6699 3.0078 s1.1328 2.0215 1.6797 2.998 s1.0677 1.9076 1.5625 2.793 s0.944 1.6829 1.3477 2.3926 s0.74219 1.3021 1.0156 1.7773 s0.46225 0.79102 0.56641 0.94727 c0.26041 0.3776 0.4427 0.58918 0.54686 0.63475 s0.22785 -0.074883 0.37107 -0.36135 c0.065098 -0.13021 0.12695 -0.43295 0.18555 -0.9082 s0.11719 -1.0775 0.17578 -1.8066 s0.11068 -1.556 0.15625 -2.4805 s0.087891 -1.8945 0.12695 -2.9102 s0.071621 -2.0572 0.097656 -3.125 s0.042305 -2.1029 0.048809 -3.1055 s0.0065041 -1.9466 0 -2.832 s-0.029297 -1.6667 -0.068359 -2.3438 c-0.013027 -0.36459 -0.019531 -0.69012 -0.019531 -0.97658 c0 -0.2474 0.013027 -0.47527 0.039063 -0.68361 s0.071602 -0.3125 0.1367 -0.3125 c0.091152 -0.065098 0.17254 -0.10742 0.24416 -0.12695 s0.13021 -0.026035 0.17578 -0.019531 s0.087891 0.01627 0.12695 0.029297 s0.071621 0.013027 0.097656 0 s0.039063 -0.032559 0.039063 -0.058594 s0.0032615 -0.058594 0.0097656 -0.097656 s0.022773 -0.081387 0.048809 -0.12695 s0.084629 -0.081367 0.17578 -0.1074 c0.10416 -0.039063 0.18555 -0.061855 0.24414 -0.068359 s0.10742 -0.0032426 0.14648 0.0097848 s0.071621 0.026055 0.097656 0.039082 s0.065098 0.006523 0.11719 -0.019512 c0.10416 -0.05209 0.18879 -0.10092 0.25389 -0.14648 s0.12369 -0.061836 0.17578 -0.048809 s0.094414 0.068359 0.12697 0.16602 s0.061855 0.26367 0.087891 0.49805 z M237.9879375 23.203 c0.013027 0.14322 0.019512 0.27998 0.019512 0.4102 l0 0.41016 c0 1.4063 -0.19205 2.8516 -0.57617 4.3359 s-0.92773 2.8939 -1.6309 4.2285 s-1.556 2.5455 -2.5586 3.6328 s-2.1225 1.9369 -3.3594 2.5488 c-0.72916 0.35156 -1.5169 0.61197 -2.3633 0.78125 s-1.6992 0.25391 -2.5586 0.25391 c-0.625 0 -1.2402 -0.045566 -1.8457 -0.13672 s-1.1816 -0.20834 -1.7285 -0.35156 c-1.224 -0.35156 -2.3209 -0.89518 -3.291 -1.6309 s-1.8001 -1.5853 -2.4902 -2.5488 s-1.2337 -2.002 -1.6308 -3.1152 s-0.62824 -2.2168 -0.69334 -3.3105 c-0.013027 -0.15625 -0.022793 -0.3125 -0.029297 -0.46875 s-0.0097656 -0.3125 -0.0097656 -0.46875 c0 -1.2109 0.14975 -2.4186 0.44922 -3.623 s0.70637 -2.3568 1.2207 -3.457 s1.1133 -2.1322 1.7969 -3.0957 s1.4128 -1.8099 2.1875 -2.5391 s1.569 -1.3249 2.3828 -1.7871 s1.6113 -0.75195 2.3926 -0.86914 c0.10416 -0.013027 0.17252 -0.022793 0.20508 -0.029297 s0.055352 -0.0097656 0.068379 -0.0097656 s0.026055 0.0032615 0.039082 0.0097656 s0.045586 0.0032426 0.097676 -0.0097848 c0.29947 -0.026035 0.51432 -0.032539 0.64453 -0.019512 s0.20834 0.032559 0.23438 0.058594 c0.026035 0.039063 0.022773 0.065098 -0.0097848 0.078125 s-0.081387 0.039063 -0.14648 0.078125 c-0.026035 0 -0.055332 0.0065041 -0.087891 0.019531 s-0.03582 0.032559 -0.0097848 0.058594 c0.026035 0.065098 0 0.12369 -0.078125 0.17578 s-0.13021 0.091152 -0.15625 0.11719 s-0.032539 0.045566 -0.019512 0.058594 s0.022793 0.019531 0.029297 0.019531 s0.0065041 0.0065041 0 0.019531 s-0.035801 0.032559 -0.087891 0.058594 c-0.15625 0.10416 -0.32227 0.19855 -0.49805 0.28318 s-0.35482 0.18555 -0.53711 0.30273 c-0.9375 0.67709 -1.7643 1.5495 -2.4805 2.6172 s-1.3151 2.2461 -1.7969 3.5352 s-0.84637 2.6465 -1.0938 4.0723 s-0.37109 2.8354 -0.37109 4.2285 l0 0.53711 l0.019531 0.53711 c0.026035 0.5599 0.11719 1.1719 0.27344 1.8359 s0.36783 1.3249 0.63477 1.9824 s0.59246 1.2923 0.97658 1.9043 s0.82357 1.1556 1.3184 1.6308 s1.0482 0.85938 1.6601 1.1523 s1.2825 0.44596 2.0117 0.45898 c1.0938 0.039063 2.0768 -0.13672 2.9492 -0.52734 s1.6439 -0.91471 2.3145 -1.5723 s1.2467 -1.4128 1.7285 -2.2656 s0.88217 -1.7318 1.2012 -2.6367 s0.56965 -1.7969 0.75193 -2.6758 s0.30598 -1.6699 0.37107 -2.373 c0.026035 -0.27344 0.045566 -0.55014 0.058594 -0.83008 s0.019531 -0.55012 0.019531 -0.81053 c0 -1.6667 -0.21811 -3.151 -0.6543 -4.4531 s-1.0156 -2.4023 -1.7383 -3.3008 s-1.5527 -1.5918 -2.4902 -2.0801 s-1.9076 -0.75195 -2.9102 -0.79102 c-0.10416 -0.013027 -0.22785 -0.016289 -0.37107 -0.0097848 s-0.28971 0.0097656 -0.43945 0.0097656 s-0.27996 0.0032615 -0.39064 0.0097656 s-0.17904 0.0032426 -0.20508 -0.0097848 c-0.16928 -0.078125 -0.27344 -0.13672 -0.3125 -0.17578 l-0.039063 -0.039063 c0 -0.10416 0.026035 -0.18229 0.078125 -0.23438 l0.19531 -0.097656 c0.065098 -0.026035 0.12695 -0.055332 0.18555 -0.087891 s0.10742 -0.061855 0.14648 -0.087891 c0.026035 -0.039063 0.019531 -0.068359 -0.019531 -0.087891 s-0.058594 -0.074863 -0.058594 -0.16602 c-0.026035 -0.065098 -0.0065041 -0.12695 0.058594 -0.18555 s0.11066 -0.087891 0.1367 -0.087891 c0.11719 -0.039063 0.19857 -0.061855 0.24414 -0.068359 s0.10742 -0.0097656 0.18555 -0.0097656 c0.13021 -0.013027 0.23764 -0.029297 0.32227 -0.048828 s0.16275 -0.042324 0.23438 -0.068359 s0.15301 -0.048828 0.24416 -0.068359 s0.21484 -0.035801 0.37109 -0.048828 c0.11719 -0.026035 0.2474 -0.039063 0.39063 -0.039063 s0.35807 -0.013027 0.64453 -0.039063 c1.1198 -0.026035 2.1451 0.10092 3.0762 0.38086 s1.7708 0.68033 2.5195 1.2012 s1.403 1.1361 1.9629 1.8457 s1.0319 1.4779 1.416 2.3047 s0.68359 1.6895 0.89844 2.5879 s0.3483 1.7904 0.40039 2.6758 z M269.9166171875 13.847999999999999 c-0.065098 0.13021 -0.12701 0.23441 -0.1856 0.31254 s-0.10742 0.13672 -0.14648 0.17578 c-0.05209 0.05209 -0.097656 0.084648 -0.13672 0.097676 c-0.10416 0.026035 -0.3125 0.061836 -0.625 0.1074 s-0.73568 0.081367 -1.2695 0.1074 c-0.39063 0.026035 -0.92447 0.081367 -1.6016 0.166 s-1.4486 0.18879 -2.3145 0.31248 s-1.8066 0.25064 -2.8223 0.38086 s-2.0703 0.2409 -3.1641 0.33205 c-0.10416 1.8229 -0.17902 3.685 -0.22459 5.5859 s-0.081367 3.8119 -0.1074 5.7324 s-0.048828 3.8346 -0.068359 5.7422 s-0.048828 3.7793 -0.087891 5.6152 c0 0.065098 -0.026035 0.12695 -0.078125 0.18555 s-0.091152 0.10742 -0.11719 0.14648 c-0.065098 0.26041 -0.18229 0.48502 -0.35156 0.67383 s-0.34506 0.2832 -0.52734 0.2832 c-0.54688 0 -0.9668 -0.084629 -1.2598 -0.25391 s-0.54361 -0.35156 -0.75195 -0.54688 c-0.091152 -0.11719 -0.17904 -0.28971 -0.26367 -0.51758 s-0.15949 -0.48178 -0.22459 -0.76172 s-0.12369 -0.57941 -0.17578 -0.89842 s-0.084648 -0.62174 -0.097676 -0.9082 c-0.026035 -0.28646 -0.045566 -0.56641 -0.058594 -0.83984 s-0.019531 -0.55338 -0.019531 -0.83984 c0 -0.625 0.019531 -1.237 0.058594 -1.8359 s0.071621 -1.1589 0.097656 -1.6797 c0.013027 -0.32553 0.03582 -0.78777 0.068379 -1.3867 s0.074883 -1.2826 0.12697 -2.0508 s0.11068 -1.5918 0.17578 -2.4707 s0.14648 -1.7611 0.24414 -2.6465 s0.20508 -1.748 0.32227 -2.5879 s0.2474 -1.6048 0.39063 -2.2949 c0.065098 -0.20834 0.12369 -0.41342 0.17578 -0.61523 s0.097656 -0.4134 0.13672 -0.63475 c-1.1979 0.078125 -2.3697 0.11719 -3.5156 0.11719 c-1.4713 0 -2.8711 -0.087891 -4.1992 -0.26367 s-2.4609 -0.48502 -3.3984 -0.92773 c-0.11719 -0.065098 -0.18555 -0.18229 -0.20508 -0.35156 s-0.068359 -0.34506 -0.14648 -0.52734 c-0.10416 -0.14322 -0.14322 -0.30273 -0.11719 -0.47852 s0.039063 -0.32227 0.039063 -0.43945 c-0.013027 -0.11719 0.022773 -0.19531 0.1074 -0.23438 s0.25391 -0.055332 0.50781 -0.048828 s0.60547 0.022773 1.0547 0.048809 s1.0384 0.039063 1.7676 0.039063 c0.54688 0 1.1719 -0.013027 1.875 -0.039063 s1.5039 -0.071602 2.4023 -0.1367 c0.44271 -0.039063 1.084 -0.10092 1.9238 -0.18555 s1.7904 -0.16926 2.8516 -0.25389 s2.1908 -0.15949 3.3887 -0.22459 s2.3828 -0.097656 3.5547 -0.097656 c0.44271 0 0.9375 0.022793 1.4844 0.068359 s1.0905 0.10742 1.6309 0.18555 s1.0417 0.16928 1.5039 0.27344 s0.84311 0.20832 1.1426 0.31248 c0.19531 0.078125 0.3125 0.14648 0.35156 0.20508 s0.055332 0.10742 0.048828 0.14648 s-0.01627 0.071621 -0.029297 0.097656 s0.019531 0.05207 0.097656 0.078105 s0.16275 0.045566 0.25391 0.058594 s0.17578 0.03582 0.25391 0.068379 s0.14322 0.074883 0.19531 0.12697 s0.071621 0.11719 0.058594 0.19531 z M294.287515625 36.3672 c0 0.05209 -0.032578 0.14986 -0.097676 0.29309 s-0.13996 0.29297 -0.22459 0.44922 s-0.17578 0.30273 -0.27344 0.43945 s-0.17904 0.21811 -0.24414 0.24414 c-0.039063 0.026035 -0.21158 0.094395 -0.51758 0.20508 s-0.71289 0.2409 -1.2207 0.39064 s-1.1035 0.30926 -1.7871 0.47854 s-1.4258 0.32879 -2.2266 0.47854 s-1.6537 0.27344 -2.5586 0.37109 s-1.8262 0.15299 -2.7637 0.16602 c-0.78125 0.026035 -1.5104 0.05207 -2.1875 0.078105 s-1.3086 0.039063 -1.8945 0.039063 c-0.32553 0 -0.63477 -0.0065041 -0.92773 -0.019531 s-0.56967 -0.032559 -0.83008 -0.058594 c-0.36459 -0.039063 -0.71615 -0.084629 -1.0547 -0.13672 c-0.29947 -0.05209 -0.60871 -0.11719 -0.92771 -0.19531 s-0.5957 -0.18229 -0.83008 -0.3125 c-0.065098 -0.013027 -0.12369 -0.045586 -0.17578 -0.097676 c-0.10416 -0.078125 -0.14973 -0.18881 -0.1367 -0.33203 c-0.11719 -0.065098 -0.20182 -0.13672 -0.25391 -0.21484 c-0.026035 -0.039063 -0.045566 -0.065098 -0.058594 -0.078125 c0 -0.026035 0.0065041 -0.058594 0.019531 -0.097656 c0.013027 -0.05209 0.071621 -0.14975 0.17578 -0.29297 c-0.091152 -0.013027 -0.15951 -0.039063 -0.20508 -0.078125 s-0.081367 -0.084629 -0.1074 -0.13672 c-0.039063 -0.05209 -0.058594 -0.11719 -0.058594 -0.19531 s0.013027 -0.15625 0.039063 -0.23438 c0.026035 -0.065098 0.061836 -0.13996 0.1074 -0.22459 s0.12043 -0.17252 0.22459 -0.26367 c0 -0.16928 0.019531 -0.29297 0.058594 -0.37109 c0.013027 -0.05209 0.032559 -0.084648 0.058594 -0.097676 c0.013027 -0.039063 0.065117 -0.078125 0.15627 -0.11719 s0.19531 -0.071621 0.3125 -0.097656 s0.23764 -0.045566 0.36133 -0.058594 s0.23111 -0.013027 0.32227 0 l0.039063 0.039063 c0.026035 -0.85938 0.058594 -1.7904 0.097656 -2.793 s0.078125 -1.9336 0.11719 -2.793 c0.05209 -1.0026 0.10418 -1.9986 0.15627 -2.9883 c0.05209 -1.224 0.13021 -2.5131 0.23438 -3.8672 c0.091152 -1.1588 0.20184 -2.4609 0.33205 -3.9063 s0.29949 -2.9166 0.50783 -4.4141 l-2.2461 0.039063 c-0.14322 0 -0.27994 -0.019531 -0.41016 -0.058594 c-0.10416 -0.026035 -0.21484 -0.071602 -0.33203 -0.1367 s-0.20182 -0.16275 -0.25391 -0.29297 c-0.20834 -0.026035 -0.36133 -0.065098 -0.45898 -0.11719 s-0.17252 -0.10418 -0.22461 -0.15627 s-0.078125 -0.11719 -0.078125 -0.19531 c0.026035 -0.14322 0.071602 -0.25391 0.1367 -0.33203 s0.19531 -0.16928 0.39063 -0.27344 c0.22135 -0.078125 0.38086 -0.17904 0.47852 -0.30273 s0.20508 -0.19855 0.32227 -0.22459 c0.05209 -0.013027 0.35809 -0.074883 0.91799 -0.18557 s1.2695 -0.2409 2.1289 -0.39064 s1.8229 -0.29297 2.8906 -0.42969 s2.1289 -0.23764 3.1836 -0.30273 c0.89844 -0.065098 1.7936 -0.10416 2.6855 -0.11719 s1.7285 -0.019531 2.5098 -0.019531 c1.0677 0 1.9662 0.013027 2.6953 0.039063 s1.1654 0.058594 1.3086 0.097656 c0.091152 0.026035 0.1823 0.071602 0.27346 0.1367 c0.065098 0.065098 0.13672 0.15299 0.21484 0.26367 s0.14322 0.25717 0.19531 0.43945 c0.10416 0.05209 0.17902 0.10092 0.22459 0.14648 s0.081367 0.087891 0.1074 0.12695 l0.058594 0.11719 l0 0.2832 l-0.039063 0.2832 c-0.013027 0.026035 -0.039063 0.05207 -0.078125 0.078105 c-0.026035 0.026035 -0.061836 0.05207 -0.1074 0.078105 s-0.1009 0.05207 -0.166 0.078105 c0.013027 0.18229 0.013027 0.32551 0 0.42967 s-0.032559 0.18879 -0.058594 0.25389 s-0.058594 0.11719 -0.097656 0.15625 c-0.091152 0.065098 -0.24414 0.11393 -0.45898 0.14648 s-0.60873 0.048828 -1.1816 0.048828 l-12.09 0.25391 c-0.039063 0.3776 -0.074863 0.82355 -0.10742 1.3379 s-0.065117 1.0645 -0.097676 1.6504 s-0.065117 1.1849 -0.097676 1.7969 s-0.061855 1.2012 -0.087891 1.7676 s-0.05207 1.0905 -0.078105 1.5723 s-0.045566 0.87891 -0.058594 1.1914 c0.49479 -0.14322 1.0417 -0.25715 1.6406 -0.34178 s1.1589 -0.15299 1.6797 -0.20508 c0.61197 -0.05209 1.2174 -0.097656 1.8164 -0.13672 c0.3776 -0.026035 0.74219 -0.039063 1.0938 -0.039063 l1.0156 0 c1.3021 0 2.308 0.026035 3.0176 0.078125 s1.1165 0.091152 1.2207 0.11719 c0.078125 0.013027 0.16275 0.065117 0.25391 0.15627 s0.17578 0.19857 0.25391 0.32227 s0.14648 0.26041 0.20508 0.41016 s0.087891 0.2832 0.087891 0.40039 c0 0.22135 -0.058594 0.45572 -0.17578 0.70313 s-0.21484 0.44922 -0.29297 0.60547 c-0.10416 0.16928 -0.24088 0.33203 -0.41016 0.48828 s-0.3125 0.22135 -0.42969 0.19531 c-0.039063 0 -0.20182 -0.0065041 -0.48828 -0.019531 s-0.64129 -0.029297 -1.0645 -0.048828 s-0.88217 -0.035801 -1.377 -0.048828 s-0.97656 -0.026055 -1.4453 -0.039082 s-0.88867 -0.022793 -1.2598 -0.029297 s-0.64127 -0.0097656 -0.81055 -0.0097656 c-0.20834 0 -0.51434 0.019531 -0.91799 0.058594 c-0.33854 0.026035 -0.80729 0.071602 -1.4063 0.1367 s-1.3607 0.15625 -2.2852 0.27344 c-0.026035 0.53385 -0.039063 1.0938 -0.039063 1.6797 l0 1.8555 c0 0.89844 0.013027 1.7871 0.039063 2.666 s0.071602 1.6699 0.1367 2.373 l2.1094 0 c0.74219 0 1.4779 -0.0097656 2.207 -0.029297 s1.3932 -0.048828 1.9922 -0.087891 c0.8724 -0.065098 1.7025 -0.13672 2.4902 -0.21484 s1.4941 -0.14975 2.1191 -0.21484 s1.1458 -0.11393 1.5625 -0.14648 s0.67707 -0.042324 0.78123 -0.029297 c0.10416 0.026035 0.24414 0.032539 0.41992 0.019512 s0.36133 -0.032559 0.55664 -0.058594 s0.38412 -0.05207 0.56641 -0.078105 s0.32551 -0.05207 0.42967 -0.078105 c0.091152 -0.013027 0.19531 0.0097656 0.3125 0.068359 s0.22787 0.13672 0.33203 0.23438 s0.19205 0.19857 0.26367 0.30273 s0.11395 0.18229 0.12697 0.23438 z M322.2510703125 14.512 c-0.10416 0.53385 -0.35494 1.058 -0.75207 1.5723 s-0.84309 0.95377 -1.3379 1.3184 c-0.065098 0.065098 -0.19205 0.13672 -0.38086 0.21484 s-0.39063 0.15951 -0.60547 0.24414 s-0.42643 0.15949 -0.63477 0.22459 s-0.37109 0.10416 -0.48828 0.11719 c-0.10416 0.026035 -0.18555 0.019531 -0.24414 -0.019531 s-0.11393 -0.084629 -0.16602 -0.13672 s-0.11395 -0.10092 -0.18557 -0.14648 s-0.17254 -0.068359 -0.30275 -0.068359 c-0.15625 0 -0.25064 -0.035801 -0.2832 -0.10742 s-0.016289 -0.20508 0.048809 -0.40039 c0.026035 -0.065098 0.071602 -0.15625 0.1367 -0.27344 s0.16926 -0.26693 0.31248 -0.44922 c0.10416 -0.11719 0.19205 -0.2474 0.26367 -0.39063 s0.084648 -0.27668 0.039082 -0.40037 s-0.17252 -0.22461 -0.38086 -0.30273 s-0.53387 -0.11719 -0.97658 -0.11719 c-0.45572 0 -1.0417 0.058594 -1.7578 0.17578 c-0.78125 0.10416 -1.5918 0.29947 -2.4316 0.58594 s-1.6537 0.6185 -2.4414 0.99609 s-1.5137 0.78125 -2.1777 1.2109 s-1.2077 0.84961 -1.6309 1.2598 s-0.69336 0.79428 -0.81055 1.1523 s-0.019531 0.64777 0.29297 0.86912 c0.27344 0.19531 0.6901 0.36133 1.25 0.49805 s1.2044 0.26041 1.9336 0.37109 s1.5104 0.22787 2.3438 0.35156 s1.6634 0.27018 2.4902 0.43945 s1.6146 0.37762 2.3633 0.62502 s1.4095 0.5534 1.9824 0.91799 c0.40365 0.27344 0.74219 0.53385 1.0156 0.78125 s0.49479 0.49154 0.66406 0.73242 s0.306 0.47525 0.41016 0.70313 s0.19531 0.45898 0.27344 0.69336 c0.05209 0.14322 0.14648 0.30273 0.2832 0.47852 s0.2832 0.38736 0.43945 0.63477 s0.29947 0.53061 0.42969 0.84961 s0.21484 0.69336 0.25391 1.123 c0.05209 0.85938 -0.12043 1.6732 -0.51756 2.4414 s-0.91145 1.4779 -1.5429 2.1289 s-1.3314 1.2337 -2.0996 1.748 s-1.5039 0.94074 -2.207 1.2793 c-0.61197 0.29947 -1.263 0.57941 -1.9531 0.83982 s-1.3997 0.48502 -2.1289 0.67383 s-1.4681 0.33855 -2.2168 0.44924 s-1.4876 0.16602 -2.2168 0.16602 c-1.2109 0 -2.3471 -0.16602 -3.4082 -0.49805 s-1.9824 -0.88867 -2.7637 -1.6699 c-0.3776 -0.40365 -0.65104 -0.81055 -0.82031 -1.2207 s-0.25391 -0.81705 -0.25391 -1.2207 c0 -0.48178 0.097656 -0.95053 0.29297 -1.4063 s0.44922 -0.88541 0.76172 -1.2891 s0.65756 -0.76498 1.0352 -1.084 s0.74869 -0.57617 1.1133 -0.77148 c0.50781 -0.28646 1.0384 -0.56316 1.5918 -0.8301 s1.11 -0.50781 1.6699 -0.72266 s1.1198 -0.39389 1.6797 -0.53711 s1.1003 -0.23438 1.6211 -0.27344 c0.22135 -0.026035 0.50129 -0.05207 0.83982 -0.078105 s0.65754 -0.039063 0.95701 -0.039063 c0.19531 0 0.35807 0.05209 0.48828 0.15625 s0.1823 0.19531 0.15627 0.27344 c-0.065098 0.14322 -0.17902 0.21484 -0.34178 0.21484 s-0.3548 0.026035 -0.57615 0.078125 c-0.2474 0.065098 -0.4948 0.11066 -0.74221 0.1367 s-0.46875 0.071602 -0.66406 0.1367 c-1.4844 0.33854 -2.7377 0.76822 -3.7598 1.2891 s-1.8359 1.0482 -2.4414 1.582 s-1.0189 1.0384 -1.2402 1.5137 s-0.28645 0.83658 -0.19529 1.084 c0.13021 0.35156 0.37109 0.625 0.72266 0.82031 s0.74869 0.33529 1.1914 0.41992 s0.89193 0.13346 1.3477 0.14648 s0.84635 0.006523 1.1719 -0.019512 c0.75521 -0.039063 1.5983 -0.14975 2.5293 -0.33203 s1.875 -0.42316 2.832 -0.72264 s1.8913 -0.6543 2.8027 -1.0645 s1.7188 -0.85938 2.4219 -1.3477 s1.2695 -1.0156 1.6992 -1.582 s0.64453 -1.1621 0.64453 -1.7871 c0 -0.20834 -0.029297 -0.41342 -0.087891 -0.61523 s-0.13998 -0.4134 -0.24414 -0.63475 c-0.19531 -0.3776 -0.56641 -0.69986 -1.1133 -0.9668 s-1.2012 -0.4948 -1.9629 -0.68361 s-1.5885 -0.35809 -2.4805 -0.50783 s-1.7708 -0.30273 -2.6367 -0.45898 s-1.6895 -0.33203 -2.4707 -0.52734 s-1.4388 -0.43619 -1.9727 -0.72266 c-0.59896 -0.32553 -1.0384 -0.64779 -1.3184 -0.9668 s-0.43945 -0.71939 -0.47852 -1.2012 c-0.013027 -0.05209 -0.05209 -0.14324 -0.11719 -0.27346 s-0.13996 -0.26693 -0.22459 -0.41016 s-0.16602 -0.27994 -0.24414 -0.41016 s-0.13672 -0.23438 -0.17578 -0.3125 c-0.20834 -0.3776 -0.3125 -0.78775 -0.3125 -1.2305 c0 -0.49479 0.11393 -1.0026 0.3418 -1.5234 s0.51107 -0.97006 0.84961 -1.3477 c0.625 -0.71615 1.4486 -1.3802 2.4707 -1.9922 s2.1387 -1.1458 3.3496 -1.6015 s2.4576 -0.82355 3.7402 -1.1035 s2.4967 -0.43945 3.6426 -0.47852 c0.46875 -0.013027 0.99609 0.019531 1.582 0.097656 s1.1296 0.21811 1.6309 0.41992 s0.9017 0.46875 1.2012 0.80078 s0.40363 0.74545 0.31248 1.2402 z"></path></g>
			</g>
		</svg>
