<?xml version="1.0" standalone="no"?>
<!DOCTYPE svg PUBLIC "-//W3C//DTD SVG 20010904//EN"
 "http://www.w3.org/TR/2001/REC-SVG-20010904/DTD/svg10.dtd">
<svg version="1.0" xmlns="http://www.w3.org/2000/svg"
 width="755.000000pt" height="728.000000pt" viewBox="0 0 755.000000 728.000000"
 preserveAspectRatio="xMidYMid meet">

<g transform="translate(0.000000,728.000000) scale(0.100000,-0.100000)"
fill="#3f63af" stroke="none">
<path d="M2545 7094 c-105 -16 -231 -72 -330 -147 -113 -85 -364 -356 -511
-552 -215 -285 -312 -468 -641 -1205 -366 -818 -649 -1846 -748 -2711 -43
-384 -54 -668 -35 -889 35 -383 121 -595 277 -678 122 -64 266 -66 394 -2 276
136 530 400 789 815 34 55 92 138 129 185 37 47 98 129 136 182 38 54 71 96
73 94 2 -3 -33 -148 -77 -323 -184 -730 -230 -1010 -202 -1239 24 -191 47
-249 119 -295 42 -28 53 -30 103 -25 31 3 81 15 110 26 70 26 206 135 342 273
59 61 109 108 110 106 40 -58 68 -85 111 -105 144 -67 327 11 564 240 l84 81
-7 -70 c-5 -38 -8 -113 -9 -165 -1 -90 1 -100 34 -165 41 -81 65 -101 142
-116 84 -17 140 5 253 95 180 145 339 327 551 630 l69 99 6 -59 c8 -77 20
-105 59 -137 24 -21 42 -27 79 -27 41 0 59 8 137 59 106 71 290 229 433 372
516 517 951 1242 1100 1834 49 198 91 497 91 658 0 69 2 74 25 85 36 17 120
15 154 -2 42 -22 91 -83 124 -156 84 -184 19 -498 -210 -1010 -150 -335 -262
-528 -509 -875 -231 -325 -352 -510 -365 -557 -13 -50 -6 -122 16 -155 12 -17
25 -23 53 -23 33 0 45 8 117 83 154 158 339 387 615 762 236 319 341 454 457
587 96 110 259 268 275 268 6 0 7 -14 3 -32 -18 -88 -66 -202 -166 -402 -242
-479 -283 -655 -213 -921 28 -107 29 -118 29 -350 0 -132 -2 -311 -5 -398 -5
-157 -5 -159 19 -178 36 -29 66 -24 115 21 31 29 48 55 59 93 23 77 51 443 51
672 0 174 -3 213 -23 300 -36 158 -38 207 -6 300 14 44 72 169 127 279 112
223 168 357 219 521 31 102 34 120 34 240 -1 108 -4 136 -19 165 -26 48 -44
59 -96 59 -56 1 -114 -25 -199 -88 -66 -50 -259 -241 -340 -339 -25 -28 -46
-51 -47 -49 -2 2 14 48 37 102 62 152 115 314 159 490 79 307 70 515 -30 729
-52 108 -157 181 -280 192 -62 6 -108 -4 -192 -41 -12 -4 -19 -2 -22 6 -2 8
-17 57 -32 109 -50 171 -98 245 -201 311 -94 59 -165 74 -275 59 -86 -12 -155
-33 -229 -70 l-38 -20 -5 33 c-3 17 -7 100 -10 182 -14 385 -103 684 -247 825
-125 123 -330 150 -535 71 l-72 -28 -15 31 c-30 63 -103 148 -158 185 -96 64
-221 74 -338 25 -18 -8 -37 -14 -41 -14 -4 0 -10 28 -13 63 -15 156 -66 335
-143 492 -56 116 -104 171 -186 216 -60 32 -68 34 -163 34 -95 0 -104 -2 -178
-37 -84 -40 -204 -117 -233 -149 -9 -10 -22 -19 -28 -19 -6 0 -23 35 -38 78
-87 244 -250 400 -426 407 -37 2 -80 1 -97 -1z m71 -325 c89 -23 179 -131 244
-293 l31 -79 -24 -26 c-313 -340 -672 -850 -922 -1311 -212 -390 -461 -946
-698 -1560 -41 -107 -118 -299 -171 -427 -232 -568 -388 -1039 -451 -1373 -23
-115 -45 -297 -45 -364 l-1 -61 -19 37 c-102 192 -118 660 -44 1228 81 614
233 1265 428 1830 223 644 566 1375 841 1788 178 268 388 480 569 571 99 51
173 62 262 40z m940 -305 c53 -22 118 -106 159 -201 39 -94 82 -258 91 -352
l6 -56 -78 -75 c-168 -161 -344 -368 -436 -510 -19 -30 -54 -82 -78 -115 l-42
-60 6 75 c33 397 25 831 -20 1116 -4 29 0 35 63 82 152 112 234 135 329 96z
m-587 -521 c24 -251 13 -725 -25 -1018 -38 -295 -48 -334 -143 -545 -178 -391
-329 -806 -476 -1299 -25 -85 -58 -177 -73 -205 -24 -45 -30 -51 -55 -48 -34
4 -75 -36 -96 -94 -52 -146 -139 -327 -194 -404 -191 -266 -415 -520 -672
-763 -279 -263 -351 -309 -383 -244 -55 112 7 473 157 922 80 240 113 327 551
1440 159 406 351 836 493 1105 253 482 459 792 801 1204 74 89 91 105 97 90 3
-11 12 -74 18 -141z m1262 -244 c21 -7 52 -26 69 -44 l31 -32 -53 -40 c-29
-22 -84 -69 -123 -104 l-70 -63 -7 129 c-4 72 -6 135 -3 142 7 21 100 28 156
12z m-382 -378 l1 -173 -104 -157 c-457 -685 -899 -1790 -1105 -2761 -95 -447
-150 -916 -134 -1145 l5 -80 -76 -85 c-139 -156 -307 -283 -350 -267 -8 3 -23
21 -33 39 -14 27 -17 56 -16 158 3 208 43 409 239 1195 175 700 215 838 279
965 195 390 389 917 486 1326 27 117 137 330 309 604 112 179 335 460 440 554
40 36 44 38 51 20 4 -10 8 -97 8 -193z m1127 146 c121 -62 189 -231 229 -577
8 -69 15 -177 15 -240 l0 -115 -92 -77 c-88 -72 -341 -319 -372 -363 -21 -29
-25 -17 -15 45 54 332 49 856 -12 1214 -11 66 -16 123 -12 127 14 13 55 18
133 15 57 -2 87 -9 126 -29z m-492 -213 c50 -225 61 -345 61 -679 -1 -329 -5
-380 -61 -670 -55 -283 -59 -294 -242 -665 -311 -633 -548 -1183 -721 -1675
-39 -109 -49 -128 -117 -210 -98 -118 -244 -265 -319 -322 -33 -25 -88 -59
-123 -76 -72 -34 -115 -32 -151 7 l-22 23 89 139 c272 425 483 855 665 1359
277 767 447 1549 512 2359 10 125 20 197 30 212 38 58 357 325 371 311 2 -2
15 -53 28 -113z m-673 -696 c-54 -503 -173 -1087 -321 -1583 -163 -543 -427
-1145 -680 -1551 l-62 -99 6 122 c15 305 126 895 251 1332 151 529 413 1184
642 1606 93 173 166 295 171 290 3 -2 -1 -55 -7 -117z m1982 -139 c69 -19 134
-94 173 -199 37 -103 42 -88 -63 -197 -177 -184 -335 -385 -531 -675 -58 -87
-107 -156 -110 -154 -2 2 10 53 27 113 69 247 121 534 146 803 24 259 16 234
83 262 133 58 197 69 275 47z m-588 -316 c-31 -289 -53 -426 -106 -643 -115
-479 -320 -1033 -554 -1499 -184 -367 -506 -831 -735 -1059 -95 -95 -156 -135
-197 -130 -27 3 -28 5 -31 71 -4 82 23 221 75 397 31 103 48 142 104 230 294
465 608 1187 784 1808 76 267 246 509 560 800 49 45 93 82 98 82 5 0 6 -26 2
-57z m820 -380 c-23 -333 -103 -620 -256 -923 -240 -476 -524 -861 -859 -1165
-140 -127 -250 -218 -256 -212 -3 2 11 56 30 119 129 426 666 1412 1047 1924
115 153 276 344 292 344 4 0 5 -39 2 -87z"/>
</g>
</svg>
